<?xml version="1.0" encoding="UTF-8"?>
<!DOCTYPE svg PUBLIC "-//W3C//DTD SVG 1.1//EN" "http://www.w3.org/Graphics/SVG/1.1/DTD/svg11.dtd">
<!-- Creator: CorelDRAW 2020 (64 Bit) -->
<svg xmlns="http://www.w3.org/2000/svg" xml:space="preserve" width="160px" height="160px" version="1.1" style="shape-rendering:geometricPrecision; text-rendering:geometricPrecision; image-rendering:optimizeQuality; fill-rule:evenodd; clip-rule:evenodd"
viewBox="0 0 160 160"
 xmlns:xlink="http://www.w3.org/1999/xlink"
 xmlns:xodm="http://www.corel.com/coreldraw/odm/2003">
 <defs>
  <style type="text/css">
   <![CDATA[
    .fil0 {fill:#009F56;fill-rule:nonzero}
   ]]>
  </style>
 </defs>
 <g id="Camada_x0020_1">
  <metadata id="CorelCorpID_0Corel-Layer"/>
  <g id="_2922649272224">
   <g>
    <path class="fil0" d="M9.38 79.58c0,-4.92 1.46,-9.67 4.23,-13.73l-2.74 -1.87c-3.14,4.62 -4.8,10.01 -4.8,15.6l3.31 0z"/>
    <path class="fil0" d="M154.34 62.78l-2.64 2.01c3.26,4.29 4.99,9.4 4.99,14.79l3.31 0c0,-6.12 -1.96,-11.93 -5.66,-16.8z"/>
    <path class="fil0" d="M145.77 63.36l0 -1.45c0,-34.58 -28.14,-62.72 -62.73,-62.72 -34.6,0 -62.74,28.14 -62.74,62.72l0 1.45c-4.64,3.88 -7.6,9.71 -7.6,16.22 0,11.13 8.64,20.25 19.56,21.07 0.85,7.88 13.17,7.28 13.17,-0.66l0 -40.82c0,-7.95 -12.33,-8.53 -13.17,-0.66 -0.65,0.04 -1.28,0.12 -1.91,0.23 1.65,-27.54 24.85,-49.61 52.69,-49.61 27.86,0 51.05,22.07 52.66,49.61 -0.62,-0.11 -1.25,-0.19 -1.89,-0.23 -0.85,-7.88 -13.17,-7.28 -13.17,0.66l0 40.82c0,3.4 2.72,6.16 6.1,6.25 -0.01,2.86 -0.6,9.41 -5.22,14.81 -4.19,4.89 -10.74,7.68 -19.41,8.35 -0.96,-4.21 -5.15,-7.4 -10.16,-7.4 -5.72,0 -10.37,4.15 -10.37,9.25 0,5.09 4.65,9.24 10.37,9.24 5.15,0 9.43,-3.37 10.23,-7.77 9.67,-0.72 17.04,-3.89 21.85,-9.51 5.61,-6.54 6.08,-14.37 6.02,-17.45 2.05,-0.87 3.51,-2.81 3.76,-5.11 10.92,-0.82 19.56,-9.94 19.56,-21.07 0,-6.51 -2.96,-12.34 -7.6,-16.22zm-53.82 73.82l0 0c-3.89,0 -7.06,-2.66 -7.06,-5.93 0,-3.27 3.17,-5.93 7.06,-5.93 3.89,0 7.06,2.66 7.06,5.93 0,3.27 -3.17,5.93 -7.06,5.93zm-49.83 -78.01l0 0 0 40.82c0,3.95 -6.61,3.96 -6.61,0l0 -40.82c0,-3.95 6.61,-3.96 6.61,0zm-9.93 38.17l0 0c-2.3,-0.21 -4.47,-0.86 -6.44,-1.87l0 -14.54 -3.31 0 0 12.33c-3.92,-3.28 -6.43,-8.19 -6.43,-13.68 0,-9.28 7.12,-16.93 16.18,-17.77l0 35.53zm50.85 -91.53l0 0c-29.94,0 -54.82,24.02 -56.05,53.78 -1.17,0.4 -2.29,0.89 -3.36,1.48 0.46,-32.37 26.92,-58.57 59.41,-58.57 32.48,0 58.94,26.2 59.4,58.57 -1.08,-0.59 -2.21,-1.09 -3.38,-1.49 -1.19,-29.75 -26.07,-53.77 -56.02,-53.77zm40.91 94.18l0 0 0 -40.82c0,-3.95 6.61,-3.96 6.61,0l0 40.82c0,3.95 -6.61,3.96 -6.61,0zm18.5 -5.83l0 0 0 -13.23 -3.31 0 0 15.08c-1.65,0.69 -3.41,1.16 -5.26,1.33l0 -35.52c9.06,0.83 16.18,8.48 16.18,17.76 0,6.03 -3.02,11.35 -7.61,14.58z"/>
    <polygon class="fil0" points="49.67,71.01 52.98,71.01 52.98,96.19 49.67,96.19 "/>
    <polygon class="fil0" points="49.67,62.97 52.98,62.97 52.98,67.24 49.67,67.24 "/>
    <polygon class="fil0" points="57.37,68.75 60.69,68.75 60.69,90.41 57.37,90.41 "/>
    <polygon class="fil0" points="113.44,71.01 116.75,71.01 116.75,96.19 113.44,96.19 "/>
    <polygon class="fil0" points="113.44,62.97 116.75,62.97 116.75,67.24 113.44,67.24 "/>
    <polygon class="fil0" points="105.73,68.75 109.05,68.75 109.05,90.41 105.73,90.41 "/>
    <path class="fil0" d="M126.55 125.36c-1.65,1.93 -3.57,3.62 -5.72,5.04l1.83 2.76c2.4,-1.58 4.56,-3.48 6.41,-5.64 3.25,-3.8 5.5,-8.35 6.69,-13.53l-3.23 -0.75c-1.07,4.66 -3.08,8.74 -5.98,12.12z"/>
    <path class="fil0" d="M70.48 115.58l-7.83 0 0 -16.49 -18.51 16.49 -39.82 0c-2.38,0 -4.32,1.94 -4.32,4.33l0 36.58c0,2.38 1.94,4.32 4.32,4.32l66.16 0c2.39,0 4.33,-1.94 4.33,-4.32l0 -36.58c0,-2.39 -1.94,-4.33 -4.33,-4.33zm1.01 40.91l0 0c0,0.56 -0.45,1.01 -1.01,1.01l-66.16 0c-0.55,0 -1.01,-0.45 -1.01,-1.01l0 -36.58c0,-0.56 0.46,-1.01 1.01,-1.01l41.08 0 13.93 -12.41 0 12.41 11.15 0c0.56,0 1.01,0.45 1.01,1.01l0 36.58z"/>
    <polygon class="fil0" points="21.21,125.46 63.31,125.46 63.31,128.78 21.21,128.78 "/>
    <polygon class="fil0" points="10.26,125.46 15.35,125.46 15.35,128.78 10.26,128.78 "/>
    <polygon class="fil0" points="54.25,136.46 63.31,136.46 63.31,139.77 54.25,139.77 "/>
    <polygon class="fil0" points="10.26,136.46 48.62,136.46 48.62,139.77 10.26,139.77 "/>
    <polygon class="fil0" points="23.42,147.46 63.31,147.46 63.31,150.77 23.42,150.77 "/>
    <polygon class="fil0" points="10.26,147.46 18.44,147.46 18.44,150.77 10.26,150.77 "/>
    <polygon class="fil0" points="107.39,149.38 148.62,149.38 148.62,152.69 107.39,152.69 "/>
    <polygon class="fil0" points="127.27,142.29 130.59,142.29 130.59,145.6 127.27,145.6 "/>
    <polygon class="fil0" points="120.65,142.29 123.96,142.29 123.96,145.6 120.65,145.6 "/>
    <polygon class="fil0" points="140.53,142.29 143.84,142.29 143.84,145.6 140.53,145.6 "/>
    <polygon class="fil0" points="147.16,142.29 148.62,142.29 148.62,145.6 147.16,145.6 "/>
    <polygon class="fil0" points="133.9,142.29 137.22,142.29 137.22,145.6 133.9,145.6 "/>
    <polygon class="fil0" points="107.39,142.29 110.71,142.29 110.71,145.6 107.39,145.6 "/>
    <polygon class="fil0" points="114.02,142.29 117.33,142.29 117.33,145.6 114.02,145.6 "/>
    <polygon class="fil0" points="17.29,16.66 31.92,16.66 31.92,13.35 15.91,13.35 9.07,20.19 11.42,22.53 "/>
    <polygon class="fil0" points="140.32,10.31 154.95,10.31 154.95,7 138.95,7 132.11,13.84 134.45,16.18 "/>
    <polygon class="fil0" points="51.33,30.06 65.34,30.06 65.34,33.38 51.33,33.38 "/>
    <polygon class="fil0" points="101.07,47.82 104.38,47.82 104.38,51.13 101.07,51.13 "/>
    <polygon class="fil0" points="87.81,47.82 91.12,47.82 91.12,51.13 87.81,51.13 "/>
    <polygon class="fil0" points="81.18,47.82 84.5,47.82 84.5,51.13 81.18,51.13 "/>
    <polygon class="fil0" points="94.44,47.82 97.75,47.82 97.75,51.13 94.44,51.13 "/>
    <polygon class="fil0" points="99.55,25.01 113.56,25.01 113.56,28.33 99.55,28.33 "/>
    <polygon class="fil0" points="10.29,46.91 13.6,46.91 13.6,50.22 10.29,50.22 "/>
    <polygon class="fil0" points="3.66,46.91 6.97,46.91 6.97,50.22 3.66,50.22 "/>
    <polygon class="fil0" points="153.8,42.74 157.11,42.74 157.11,46.05 153.8,46.05 "/>
    <polygon class="fil0" points="147.17,42.74 150.48,42.74 150.48,46.05 147.17,46.05 "/>
   </g>
  </g>
 </g>
</svg>
