<?xml version="1.0" encoding="UTF-8"?>
<!DOCTYPE svg PUBLIC "-//W3C//DTD SVG 1.1//EN" "http://www.w3.org/Graphics/SVG/1.1/DTD/svg11.dtd">
<!-- Creator: CorelDRAW 2020 (64 Bit) -->
<svg xmlns="http://www.w3.org/2000/svg" xml:space="preserve" width="160px" height="160px" version="1.1" style="shape-rendering:geometricPrecision; text-rendering:geometricPrecision; image-rendering:optimizeQuality; fill-rule:evenodd; clip-rule:evenodd"
viewBox="0 0 160 160"
 xmlns:xlink="http://www.w3.org/1999/xlink"
 xmlns:xodm="http://www.corel.com/coreldraw/odm/2003">
 <defs>
  <style type="text/css">
   <![CDATA[
    .fil0 {fill:#009F56;fill-rule:nonzero}
   ]]>
  </style>
 </defs>
 <g id="Camada_x0020_1">
  <metadata id="CorelCorpID_0Corel-Layer"/>
  <g id="_2886287065680">
   <g>
    <path class="fil0" d="M45.61 104.23c-4.49,0 -8.14,3.63 -8.14,8.13 -0.01,4.49 3.63,8.14 8.12,8.14 4.5,0.01 8.14,-3.63 8.15,-8.12 0,-0.01 0,-0.01 0,-0.01 0,-4.49 -3.64,-8.13 -8.13,-8.14zm0 11.27l0 0c-1.73,0.01 -3.14,-1.39 -3.14,-3.12 -0.01,-1.73 1.39,-3.14 3.12,-3.15 1.73,0 3.14,1.4 3.15,3.13 0,0 0,0 0,0.01 0,1.73 -1.4,3.13 -3.13,3.13z"/>
    <path class="fil0" d="M45.61 96.35c-8.84,-0.01 -16.02,7.16 -16.03,16 -0.01,8.85 7.15,16.03 16,16.04 8.85,0 16.02,-7.16 16.03,-16.01 0,0 0,-0.01 0,-0.01 0,-8.84 -7.16,-16 -16,-16.02zm0 27.03l0 0c-6.08,0.01 -11.02,-4.91 -11.03,-11 -0.01,-6.08 4.92,-11.02 11,-11.03 6.08,-0.01 11.02,4.92 11.03,11 0,0.01 0,0.02 0,0.03 -0.01,6.07 -4.93,10.99 -11,11z"/>
    <path class="fil0" d="M23.7 109.87l-21.2 0c-1.38,0 -2.5,1.12 -2.5,2.5 0,1.38 1.12,2.5 2.5,2.5l21.2 0c1.38,0 2.5,-1.12 2.5,-2.5 0,-1.38 -1.12,-2.5 -2.5,-2.5z"/>
    <path class="fil0" d="M62.09 79.25l-0.11 -4.72c0.15,-0.21 0.27,-0.43 0.37,-0.67 0.6,-1.86 0.72,-3.84 0.36,-5.77 -0.2,-1.63 -0.84,-3.18 -1.85,-4.48 -0.16,-0.16 -0.32,-0.31 -0.5,-0.45 -1.87,-8.29 -6.82,-15.56 -13.85,-20.33 -4.4,-3.13 -14.56,-6.81 -37.59,-6.36 -2.18,0.05 -4.41,0.16 -6.63,0.34 -1.37,0.16 -2.35,1.4 -2.2,2.77 0.16,1.31 1.3,2.27 2.62,2.21 2.11,-0.18 4.23,-0.29 6.3,-0.34 23.76,-0.47 32.1,3.67 34.6,5.44 5.53,3.75 9.59,9.3 11.49,15.71 -5.86,1.79 -6.85,5.21 -6.85,7.21 0,1.99 1.25,5.37 8.77,6.36l0.11 4.75c0.02,1.07 0.72,2 1.73,2.34 2.97,1.03 5.15,3.58 5.71,6.68 0.8,4.77 0.45,9.66 -1,14.27 -0.75,1.16 -0.41,2.71 0.75,3.46 1.11,0.71 2.57,0.44 3.36,-0.6 1.92,-2.79 2.79,-11.11 1.84,-17.83 -0.67,-4.35 -3.45,-8.1 -7.43,-9.99zm-8.84 -9.4l0 0c0,-1.22 2,-2.15 4,-2.67 0.26,0.53 0.43,1.09 0.5,1.67 0.15,0.81 0.17,1.64 0.09,2.46 -3.36,-0.39 -4.48,-1.25 -4.59,-1.46z"/>
    <path class="fil0" d="M114.74 96.19c-8.85,-0.01 -16.03,7.15 -16.04,16 -0.01,8.85 7.15,16.03 16,16.04 8.85,0.01 16.03,-7.15 16.04,-16 0,-0.01 0,-0.01 0,-0.02 -0.01,-8.84 -7.16,-16 -16,-16.02zm0 27.04l0 0c-6.09,0.01 -11.03,-4.92 -11.04,-11 -0.01,-6.09 4.91,-11.03 11,-11.04 6.09,-0.01 11.03,4.91 11.04,11 0,0 0,0.01 0,0.02 -0.01,6.07 -4.92,11 -11,11.02z"/>
    <path class="fil0" d="M114.74 104.07c-4.5,-0.01 -8.15,3.63 -8.15,8.13 -0.01,4.49 3.63,8.14 8.12,8.15 4.5,0.01 8.15,-3.63 8.16,-8.12 0,-0.01 0,-0.02 0,-0.02 -0.01,-4.49 -3.64,-8.13 -8.13,-8.14zm0 11.28l0 0c-1.74,0.01 -3.15,-1.39 -3.15,-3.13 -0.01,-1.73 1.39,-3.14 3.12,-3.15 1.74,-0.01 3.15,1.39 3.16,3.12 0,0.01 0,0.01 0,0.02 0,1.73 -1.4,3.13 -3.13,3.14z"/>
    <path class="fil0" d="M87.53 93.49c3,-0.17 5.86,-1.39 8.06,-3.44 1.84,-1.54 3.27,-3.51 4.16,-5.74 0.52,-1.36 0.62,-2.85 0.29,-4.26 5.17,-2.26 11.83,-5.07 11.83,-5.07 0.3,-0.13 0.57,-0.31 0.8,-0.54 5.5,-5.42 11.43,-10.4 17.72,-14.89l1.06 -0.72c7.86,-5.69 16.44,-10.3 25.52,-13.72 0.44,-0.17 0.88,-0.34 1.34,-0.49 1.3,-0.44 2,-1.87 1.55,-3.17 -0.44,-1.31 -1.87,-2.01 -3.17,-1.56 -0.53,0.18 -1.05,0.37 -1.54,0.56 -9.43,3.56 -18.34,8.35 -26.52,14.25l-1.06 0.72c-6.42,4.55 -12.47,9.62 -18.09,15.14 -1.83,0.77 -8.95,3.79 -13.51,5.82 -4.33,1.77 -8.09,4.68 -10.89,8.44 -2.05,2.72 -3.21,6.02 -3.31,9.43 0.23,4.14 0.73,8.26 1.49,12.34 1.53,4.76 5.9,8.04 10.91,8.18 1.38,0 2.5,-1.12 2.5,-2.5 0,-1.38 -1.12,-2.5 -2.5,-2.5 -2.65,-0.16 -4.98,-1.81 -6,-4.26 -0.69,-3.69 -1.14,-7.42 -1.38,-11.16 0,-0.33 0.06,-0.65 0.1,-0.97 0.21,0.03 0.4,0.11 0.64,0.11zm7.55 -11.03l0 0c-0.02,0.05 0,0.08 -0.03,0.13 -0.59,1.43 -1.53,2.69 -2.72,3.67 -1.03,0.91 -2.23,1.6 -3.53,2.03 0.11,-0.18 0.21,-0.36 0.33,-0.53 1.59,-2.16 3.62,-3.97 5.95,-5.3z"/>
    <path class="fil0" d="M157.5 109.71l-20.55 0c-1.38,0 -2.5,1.12 -2.5,2.5 0,1.38 1.12,2.5 2.5,2.5l20.55 0c1.38,0 2.5,-1.12 2.5,-2.5 0,-1.38 -1.12,-2.5 -2.5,-2.5z"/>
    <path class="fil0" d="M157.5 71.25l-37.06 0c-1.38,0 -2.5,1.12 -2.5,2.5 0,1.38 1.12,2.5 2.5,2.5l37.06 0c1.38,0 2.5,-1.12 2.5,-2.5 0,-1.38 -1.12,-2.5 -2.5,-2.5z"/>
    <path class="fil0" d="M84.12 55.13l3.28 -11.73 3.28 11.73c0.37,1.33 1.75,2.1 3.08,1.73 0.19,-0.05 0.38,-0.13 0.55,-0.23l10.62 -5.97 -5.98 10.62c-0.67,1.2 -0.25,2.73 0.95,3.41 0.18,0.1 0.37,0.17 0.56,0.23l3.96 1.1c1.33,0.37 2.71,-0.41 3.08,-1.74 0.37,-1.33 -0.41,-2.71 -1.74,-3.07l-0.89 -0.25 8.8 -15.63c0.68,-1.2 0.25,-2.73 -0.95,-3.41 -0.76,-0.43 -1.7,-0.43 -2.46,0l-15.63 8.81 -4.83 -17.29c-0.37,-1.33 -1.75,-2.1 -3.08,-1.73 -0.85,0.23 -1.51,0.89 -1.74,1.73l-4.83 17.29 -15.63 -8.81c-1.21,-0.67 -2.73,-0.23 -3.4,0.98 -0.42,0.75 -0.42,1.67 0,2.43l8.81 15.63 -1.86 0.52c-1.33,0.37 -2.11,1.74 -1.75,3.07 0.3,1.09 1.29,1.84 2.42,1.84 0.22,0 0.45,-0.03 0.66,-0.09l4.93 -1.38c1.33,-0.37 2.11,-1.75 1.74,-3.08 -0.06,-0.19 -0.14,-0.38 -0.23,-0.55l-5.97 -10.63 10.62 5.98c1.2,0.68 2.72,0.25 3.4,-0.95 0.1,-0.17 0.18,-0.36 0.23,-0.56l0 0z"/>
    <path class="fil0" d="M28.65 45.39c-1.39,0 -2.5,1.12 -2.5,2.51l0 23.51 -23.65 0c-1.38,0 -2.5,1.12 -2.5,2.5 0,1.38 1.12,2.5 2.5,2.5l39.76 0c1.38,0 2.5,-1.12 2.5,-2.5 0,-1.38 -1.12,-2.5 -2.5,-2.5l-11.11 0 0 -23.51c0,-1.39 -1.12,-2.51 -2.5,-2.51z"/>
   </g>
  </g>
 </g>
</svg>
