<?xml version="1.0" encoding="UTF-8"?>
<!DOCTYPE svg PUBLIC "-//W3C//DTD SVG 1.1//EN" "http://www.w3.org/Graphics/SVG/1.1/DTD/svg11.dtd">
<!-- Creator: CorelDRAW 2020 (64 Bit) -->
<svg xmlns="http://www.w3.org/2000/svg" xml:space="preserve" width="160px" height="160px" version="1.1" style="shape-rendering:geometricPrecision; text-rendering:geometricPrecision; image-rendering:optimizeQuality; fill-rule:evenodd; clip-rule:evenodd"
viewBox="0 0 160 160"
 xmlns:xlink="http://www.w3.org/1999/xlink"
 xmlns:xodm="http://www.corel.com/coreldraw/odm/2003">
 <defs>
  <style type="text/css">
   <![CDATA[
    .fil0 {fill:#009F56;fill-rule:nonzero}
   ]]>
  </style>
 </defs>
 <g id="Camada_x0020_1">
  <metadata id="CorelCorpID_0Corel-Layer"/>
  <g id="_2922654944720">
   <g>
    <path class="fil0" d="M52.49 70.14c-4.38,0 -7.89,3.5 -7.89,7.89 0,4.38 3.51,7.89 7.89,7.89 4.39,0 7.89,-3.51 7.89,-7.89 0,-4.39 -3.5,-7.89 -7.89,-7.89z"/>
    <path class="fil0" d="M124.6 78.03c0,-4.39 -3.5,-7.89 -7.89,-7.89 -4.38,0 -7.89,3.5 -7.89,7.89 0,4.38 3.51,7.89 7.89,7.89 4.39,0 7.89,-3.51 7.89,-7.89z"/>
    <path class="fil0" d="M150.47 91.4c-3.73,3.72 -8.77,5.48 -13.59,5.26 5.04,-5.26 8.11,-12.5 8.11,-20.39 0,-6.57 -2.2,-12.93 -5.92,-17.97l1.09 0c3.07,0 5.48,-2.41 5.48,-5.48 0,-3.07 -2.41,-5.48 -5.48,-5.48l-8.32 0c-5.92,-11.61 -19.07,-22.57 -47.13,-22.57 -28.05,0 -40.98,10.96 -47.12,22.57l-8.33 0c-3.07,0 -5.48,2.41 -5.48,5.48 0,3.07 2.41,5.48 5.48,5.48l1.1 0c-3.73,5.04 -5.92,11.18 -5.92,17.97 0,7.46 2.63,14.25 7.23,19.51 -2.41,-0.88 -4.6,-2.19 -6.57,-4.16 -2.2,-2.19 -5.7,-2.19 -7.68,0 -2.19,2.19 -2.19,5.7 0,7.67 5.7,5.7 13.16,8.55 20.61,8.55 5.91,0 11.61,-1.76 16.66,-5.26 4.82,3.5 10.52,5.26 16.65,5.26 6.14,0 11.84,-1.76 16.66,-5.26 4.82,3.5 10.52,5.26 16.66,5.26 6.13,0 11.83,-1.76 16.66,-5.26 5.04,3.5 10.73,5.26 16.65,5.26 7.46,0 14.91,-2.85 20.39,-8.55 2.19,-2.19 2.19,-5.7 0,-7.67 -2.2,-2.19 -5.7,-2.19 -7.89,-0.22zm-65.54 -55.67l0 0c18.41,0 30.69,5.26 36.82,15.78l-73.64 0c5.92,-10.52 18.19,-15.78 36.82,-15.78zm6.8 55.67l0 0c-1.1,-1.1 -2.41,-1.54 -3.95,-1.54 -1.31,0 -2.85,0.44 -3.94,1.54 -3.51,3.5 -7.89,5.26 -12.72,5.26 -4.82,0 -9.42,-1.98 -12.71,-5.26 -1.1,-1.1 -2.41,-1.54 -3.94,-1.54 -1.32,0 -2.85,0.44 -3.95,1.54 -0.66,0.65 -1.32,1.31 -2.19,1.75 -7.45,-1.31 -12.93,-8.55 -12.93,-17.09 0,-5.49 2.19,-10.53 6.13,-13.81l86.14 0c3.95,3.28 6.14,8.32 6.14,13.81 0,6.57 -3.51,12.71 -8.77,15.56 -0.22,0 -0.22,-0.22 -0.44,-0.22 -1.09,-1.1 -2.41,-1.54 -3.94,-1.54 -1.32,0 -2.85,0.44 -3.95,1.54 -3.5,3.28 -7.89,5.26 -12.71,5.26 -4.16,0 -8.77,-1.76 -12.27,-5.26z"/>
    <path class="fil0" d="M134.47 119.01c-7.02,7.02 -18.42,7.02 -25.43,0 -1.31,-1.31 -3.29,-1.75 -4.82,-1.53 -1.1,0.22 -1.97,0.66 -2.85,1.53 -3.51,3.29 -7.89,5.26 -12.71,5.26 -4.82,0 -9.43,-1.97 -12.71,-5.26 -1.1,-1.09 -2.42,-1.53 -3.95,-1.53 -1.32,0 -2.85,0.44 -3.95,1.53 -3.5,3.51 -7.89,5.26 -12.71,5.26 -4.82,0 -9.42,-1.97 -12.71,-5.26 -1.1,-1.09 -2.41,-1.53 -3.95,-1.53 -1.31,0 -2.85,0.44 -3.94,1.53 -7.01,7.02 -18.41,7.02 -25.43,0 -2.19,-2.19 -5.69,-2.19 -7.67,0 -2.19,2.2 -2.19,5.7 0,7.68 5.7,5.69 13.15,8.54 20.61,8.54 5.91,0 11.61,-1.75 16.65,-5.26 4.83,3.51 10.52,5.26 16.66,5.26 6.14,0 11.84,-1.75 16.66,-5.26 4.82,3.51 10.52,5.26 16.66,5.26 6.13,0 11.83,-1.75 16.65,-5.26 5.05,3.51 10.74,5.26 16.66,5.26 7.45,0 14.91,-2.85 20.39,-8.54 2.19,-2.2 2.19,-5.7 0,-7.68 -2.42,-2.19 -5.92,-2.19 -8.11,0z"/>
   </g>
  </g>
 </g>
</svg>
