<?xml version="1.0" encoding="UTF-8"?>
<!DOCTYPE svg PUBLIC "-//W3C//DTD SVG 1.1//EN" "http://www.w3.org/Graphics/SVG/1.1/DTD/svg11.dtd">
<!-- Creator: CorelDRAW 2020 (64 Bit) -->
<svg xmlns="http://www.w3.org/2000/svg" xml:space="preserve" width="160px" height="160px" version="1.1" style="shape-rendering:geometricPrecision; text-rendering:geometricPrecision; image-rendering:optimizeQuality; fill-rule:evenodd; clip-rule:evenodd"
viewBox="0 0 160 160"
 xmlns:xlink="http://www.w3.org/1999/xlink"
 xmlns:xodm="http://www.corel.com/coreldraw/odm/2003">
 <defs>
  <style type="text/css">
   <![CDATA[
    .fil0 {fill:#009F56;fill-rule:nonzero}
   ]]>
  </style>
 </defs>
 <g id="Camada_x0020_1">
  <metadata id="CorelCorpID_0Corel-Layer"/>
  <g id="_2886277180992">
   <g>
    <path class="fil0" d="M91.6 78.95c-0.4,-0.6 -1,-1 -1.73,-1.1l-21.34 -3.27 0.7 -0.63 5.64 -5 10.8 -9.6c1.03,-0.93 1.1,-2.5 0.2,-3.53 -0.3,-0.34 -0.67,-0.57 -1.07,-0.7l-12.5 -4.3 -0.6 -3.3 -0.96 -5.2c-1.57,0.8 -3.11,1.63 -4.64,2.5l0.97 5.3 0.56 3.03c0.17,0.9 0.8,1.63 1.67,1.93l9.83 3.37 -11.76 10.5 -5.6 5 -0.5 0.43c-1.03,0.9 -1.14,2.5 -0.2,3.5 0.36,0.44 0.9,0.74 1.46,0.84l20.17 3.1 -28.5 18.63c-0.7,0.43 -1.1,1.2 -1.13,2 0,0.5 0.1,1 0.4,1.47 0.13,0.2 0.3,0.36 0.5,0.53 0.4,0.33 0.86,0.53 1.36,0.57l22.24 2.03 0.1 0.47 0.93 5 5.1 0 -0.93 -5 -0.6 -3.24c-0.2,-1.1 -1.14,-1.93 -2.23,-2.03l-17.01 -1.53 27.94 -18.3c1.16,-0.77 1.5,-2.3 0.73,-3.47z"/>
    <g>
     <path class="fil0" d="M33.1 101.88c-4.5,-0.03 -8.17,3.64 -8.17,8.14 0,2.23 0.9,4.3 2.37,5.76 1.5,1.47 3.5,2.4 5.77,2.4 4.5,0 8.16,-3.63 8.16,-8.13 0.04,-4.5 -3.63,-8.17 -8.13,-8.17zm0 11.3l0 0c-1.73,0 -3.17,-1.4 -3.17,-3.16 0,-1.74 1.4,-3.14 3.14,-3.14l0 -0.03c1.73,0 3.16,1.4 3.16,3.17 0.04,1.73 -1.4,3.16 -3.13,3.16z"/>
     <path class="fil0" d="M135.64 101.88c-4.51,-0.03 -8.17,3.64 -8.17,8.14 -0.03,4.5 3.63,8.16 8.13,8.16 4.5,0 8.17,-3.63 8.17,-8.13 0,0 0,0 0,-0.03 0,-4.5 -3.64,-8.14 -8.13,-8.14zm3.13 8.17l0 0c0,1.73 -1.4,3.13 -3.13,3.13l0 0.04c-1.77,0 -3.17,-1.4 -3.17,-3.17 -0.03,-1.73 1.4,-3.17 3.13,-3.17 1.74,0 3.17,1.4 3.17,3.14 0,0.03 0,0.03 0,0.03z"/>
     <path class="fil0" d="M116.64 110.02c0,1.4 -1.14,2.5 -2.5,2.5l-58.57 0c-1.4,0 -2.5,-1.1 -2.5,-2.5 0,-1.37 1.1,-2.5 2.5,-2.5l58.57 0c1.36,0 2.5,1.13 2.5,2.5z"/>
     <path class="fil0" d="M159.6 86.85c-0.66,-4.37 -3.43,-8.13 -7.43,-10.07l-0.13 -4.73c0.16,-0.2 0.26,-0.43 0.36,-0.67 0.3,-0.83 0.47,-1.7 0.54,-2.56 0.1,-1.07 0.03,-2.14 -0.17,-3.2 -0.2,-1.67 -0.83,-3.2 -1.87,-4.5 -0.13,-0.17 -0.3,-0.34 -0.5,-0.47 -0.03,-0.17 -0.06,-0.33 -0.13,-0.5 -1.93,-8.1 -6.84,-15.2 -13.73,-19.87 -0.87,-0.6 -1.97,-1.23 -3.34,-1.86 -1.3,-0.6 -2.86,-1.17 -4.73,-1.74 -2.43,-0.66 -5.33,-1.3 -8.83,-1.76 -2.61,-0.37 -5.57,-0.64 -8.87,-0.8 -3.53,-0.2 -7.5,-0.27 -11.97,-0.2 -8.6,-0.14 -17.17,1.26 -25.27,4.13 -2.93,1.33 -5.8,2.77 -8.63,4.27 -1.57,0.8 -3.1,1.63 -4.63,2.5 -9.3,5.26 -18.14,11.33 -26.37,18.16 -2.07,1.67 -4.07,3.44 -6.07,5.24 -0.06,0.03 -0.16,0.06 -0.26,0.1 -2.1,0.93 -8.94,3.8 -13.34,5.76 -4.33,1.77 -8.1,4.7 -10.9,8.47 -2.06,2.73 -3.23,6.03 -3.33,9.47 -0.03,1.8 1,9.53 1.47,12.26 1.1,5.1 5.76,8.67 10.96,8.3 1.34,0 3.37,-0.06 4.84,-0.13 0.03,0.17 0.06,0.33 0.1,0.5 0.9,4.9 3.96,8.87 8.06,11.1 2.97,1.63 6.5,2.37 10.1,1.8 1.9,-0.3 3.67,-0.9 5.27,-1.8 2.23,-1.2 4.13,-2.93 5.53,-5 2.24,-3.23 3.27,-7.3 2.6,-11.5 -0.16,-1.07 -0.43,-2.1 -0.8,-3.1 -0.23,-0.7 -0.53,-1.37 -0.9,-2 -3.1,-5.83 -9.63,-9.37 -16.56,-8.3 -1.47,0.23 -2.87,0.63 -4.17,1.27 -2.5,1.1 -4.67,2.86 -6.27,5.03 -1.5,2.03 -2.53,4.4 -2.96,7 -1.4,0.07 -3.47,0.17 -4.84,0.17 -0.53,0 -5.33,-0.14 -6.03,-4.2 -0.6,-3.34 -1.43,-10.27 -1.4,-11.3 0,-0.34 0.07,-0.67 0.1,-0.97 0.23,0.03 0.43,0.07 0.67,0.1 3,-0.17 5.86,-1.4 8.1,-3.47 3.2,-2.26 4.93,-6.13 4.46,-10.03 2.6,-1.13 5.57,-2.4 7.87,-3.4 2.33,-0.97 4,-1.7 4,-1.7 0.27,-0.1 0.53,-0.27 0.73,-0.47 0.37,-0.33 0.74,-0.66 1.1,-0.93 9,-8.07 18.77,-15.13 29.2,-21.13 1.54,-0.94 3.07,-1.77 4.64,-2.6 3.16,-1.74 6.4,-3.34 9.67,-4.87 5.4,-2.03 11.09,-3.2 16.89,-3.43l0 23.66c-0.03,3.34 -2.73,6.04 -6.06,6.07l-47.67 0c-1.37,0 -2.5,1.1 -2.5,2.5 0,1.37 1.13,2.5 2.5,2.5l47.67 0c6.1,-0.03 11.03,-4.97 11.07,-11.07l0 -23.93c0.46,0 0.96,-0.03 1.46,-0.03 7.74,-0.14 13.87,0.2 18.67,0.76 7.77,0.97 12.13,2.54 14.5,3.74 0.67,0.36 1.2,0.66 1.57,0.93 3.53,2.4 6.46,5.57 8.63,9.2 1.23,2.07 2.2,4.27 2.9,6.6 -0.7,0.23 -1.37,0.47 -1.93,0.7 -4.2,1.9 -4.94,4.77 -4.94,6.5 0,0.53 0.1,1.07 0.27,1.6l-36.8 0c-1.37,0 -2.5,1.1 -2.5,2.5 0,1.37 1.13,2.5 2.5,2.5l45.3 0 0.13 4.57c0,1.06 0.74,2 1.74,2.33 3,1.03 5.16,3.6 5.73,6.7 0.8,4.8 0.47,9.7 -1,14.33 -0.83,1 -1.9,1.77 -3.13,2.27 -3.3,-8.2 -12.6,-12.17 -20.8,-8.87 -1.24,0.5 -2.4,1.14 -3.44,1.94 -5.8,4.16 -8.23,11.93 -5.43,18.86 0.23,0.57 0.47,1.1 0.73,1.6 3.83,7.1 12.44,10.34 20.07,7.27 6.1,-2.43 10.07,-8.37 10.03,-14.9 0,-0.33 -0.06,-0.67 -0.1,-1 2.44,-0.8 4.6,-2.3 6.17,-4.33 1.93,-2.77 2.8,-11.14 1.83,-17.87zm-134.77 15.87l0 0c2,-2.3 4.94,-3.74 8.24,-3.74 6.1,0 11.06,4.94 11.06,11.07 0,3.7 -1.83,7 -4.63,9 -1.8,1.3 -4.03,2.07 -6.4,2.07 -2.4,0 -4.63,-0.77 -6.43,-2.07 -2.04,-1.43 -3.54,-3.53 -4.2,-5.97 -0.3,-0.96 -0.44,-1.96 -0.44,-3.03l-0.03 0c0,-2.83 1.07,-5.37 2.83,-7.33zm-14.23 -18.74l0 0c-1.03,0.94 -2.27,1.6 -3.57,2.04 0.1,-0.17 0.2,-0.37 0.34,-0.54 1.6,-2.2 3.63,-4 6,-5.33 -0.57,1.5 -1.54,2.83 -2.77,3.83zm132.7 -16.63l0 0c0,-1.2 2,-2.13 4.03,-2.67 0.27,0.54 0.44,1.1 0.51,1.67 0.13,0.83 0.16,1.67 0.1,2.5 -3.4,-0.4 -4.54,-1.27 -4.64,-1.5zm0.13 50.5l0 0c-1.99,2 -4.76,3.23 -7.79,3.23 -6.14,0.04 -11.07,-4.93 -11.1,-11.03 0,-6.1 4.93,-11.07 11.03,-11.07 6.13,-0.03 11.1,4.9 11.1,11.04 0,3.03 -1.23,5.83 -3.24,7.83z"/>
    </g>
   </g>
  </g>
 </g>
</svg>
