<?xml version="1.0" encoding="UTF-8"?>
<!DOCTYPE svg PUBLIC "-//W3C//DTD SVG 1.1//EN" "http://www.w3.org/Graphics/SVG/1.1/DTD/svg11.dtd">
<!-- Creator: CorelDRAW 2020 (64 Bit) -->
<svg xmlns="http://www.w3.org/2000/svg" xml:space="preserve" width="130px" height="130px" version="1.1" style="shape-rendering:geometricPrecision; text-rendering:geometricPrecision; image-rendering:optimizeQuality; fill-rule:evenodd; clip-rule:evenodd"
viewBox="0 0 200 200"
 xmlns:xlink="http://www.w3.org/1999/xlink"
 xmlns:xodm="http://www.corel.com/coreldraw/odm/2003">
 <defs>
  <style type="text/css">
   <![CDATA[
    .fil0 {fill:#009F56;fill-rule:nonzero}
   ]]>
  </style>
 </defs>
 <g id="Camada_x0020_1">
  <metadata id="CorelCorpID_0Corel-Layer"/>
  <g id="_2922659238720">
   <g>
    <path class="fil0" d="M103.34 58.67l-22.6 21.89 -10.51 -10.84c-2.04,-2.1 -5.39,-2.15 -7.49,-0.11 -2.1,2.04 -2.15,5.4 -0.11,7.5l14.2 14.65c0.98,1 2.31,1.58 3.71,1.6l0.09 0c1.37,0 2.7,-0.53 3.68,-1.49l26.39 -25.6c2.1,-2.03 2.15,-5.38 0.12,-7.48 -2.04,-2.1 -5.39,-2.15 -7.48,-0.11l0 -0.01z"/>
    <path class="fil0" d="M158.66 18.32c-0.97,-1.08 -2.33,-1.72 -3.77,-1.78 -14.23,-0.83 -28.27,-3.74 -41.65,-8.64 -10.61,-4.58 -20.73,-10.2 -30.23,-16.78 -1.83,-1.29 -4.27,-1.29 -6.1,0 -9.47,6.58 -19.57,12.2 -30.15,16.78 -13.39,4.91 -27.43,7.83 -41.66,8.66 -2.93,0.11 -5.21,2.57 -5.1,5.49 0.01,0.09 0.01,0.17 0.02,0.25 0.71,8.26 7.06,81.13 15.27,95.45 14.48,23.97 36.74,42.27 63.07,51.84 1.06,0.34 2.2,0.34 3.25,0 26.34,-9.57 48.6,-27.87 63.09,-51.84 8.22,-14.34 14.58,-87.21 15.28,-95.47 0.12,-1.45 -0.36,-2.87 -1.32,-3.96zm-23.15 94.14l0 0c-12.95,21.11 -32.45,37.42 -55.52,46.44 -23.09,-8.99 -42.59,-25.3 -55.5,-46.44 -5,-8.72 -10.66,-55.08 -13.42,-85.73 13.55,-1.21 26.87,-4.24 39.61,-9 10.27,-4.34 20.09,-9.66 29.34,-15.89 9.25,6.23 19.07,11.55 29.34,15.89 12.74,4.76 26.06,7.79 39.61,9 -2.81,30.66 -8.46,77.01 -13.46,85.73z"/>
    <path class="fil0" d="M80 140.31c-16.87,-7.75 -31.03,-20.38 -40.66,-36.25 -4.48,-17.88 -7.44,-36.11 -8.82,-54.49 -0.25,-2.91 -2.81,-5.07 -5.73,-4.82 -2.91,0.24 -5.07,2.81 -4.83,5.72 0.01,0.1 0.02,0.19 0.04,0.29 2.64,23.4 6.87,52.76 10.11,58.48 11.2,18.52 27.88,33.1 47.72,41.74 1.38,0.62 2.95,0.62 4.33,0 19.84,-8.64 36.51,-23.21 47.72,-41.72 3.24,-5.73 7.49,-35.18 10.13,-58.66 0.42,-2.9 -1.6,-5.58 -4.49,-5.99 -2.9,-0.42 -5.58,1.6 -5.99,4.49 -0.02,0.11 -0.03,0.21 -0.04,0.32 -1.4,18.41 -4.35,36.68 -8.81,54.6 -9.63,15.89 -23.8,28.53 -40.68,36.29z"/>
    <path class="fil0" d="M106.97 23.75c-8.4,-3.48 -16.5,-7.65 -24.2,-12.46 -1.7,-1.04 -3.84,-1.04 -5.54,0 -7.7,4.82 -15.79,8.99 -24.19,12.47 -2.72,1.07 -4.05,4.15 -2.98,6.86 1.07,2.72 4.15,4.05 6.87,2.98 7.98,-3.25 15.7,-7.13 23.07,-11.61 7.38,4.46 15.09,8.34 23.07,11.6 2.75,1 5.78,-0.43 6.78,-3.18 0.95,-2.63 -0.31,-5.55 -2.88,-6.66z"/>
   </g>
  </g>
 </g>
</svg>
