<?xml version="1.0" encoding="UTF-8"?>
<!DOCTYPE svg PUBLIC "-//W3C//DTD SVG 1.1//EN" "http://www.w3.org/Graphics/SVG/1.1/DTD/svg11.dtd">
<!-- Creator: CorelDRAW 2020 (64 Bit) -->
<svg xmlns="http://www.w3.org/2000/svg" xml:space="preserve" width="130px" height="130px" version="1.1" style="shape-rendering:geometricPrecision; text-rendering:geometricPrecision; image-rendering:optimizeQuality; fill-rule:evenodd; clip-rule:evenodd"
viewBox="0 0 160 160"
 xmlns:xlink="http://www.w3.org/1999/xlink"
 xmlns:xodm="http://www.corel.com/coreldraw/odm/2003">
 <defs>
  <style type="text/css">
   <![CDATA[
    .fil0 {fill:#009F56;fill-rule:nonzero}
   ]]>
  </style>
 </defs>
 <g id="Camada_x0020_1">
  <metadata id="CorelCorpID_0Corel-Layer"/>
  <g id="_2922659671344">
   <g>
    <path class="fil0" d="M135.46 38.05l-8.65 -14.73c-0.85,-1.46 -2.73,-1.95 -4.19,-1.1 -1.1,0.64 -1.69,1.89 -1.48,3.15 0.76,5.16 0.49,10.43 -0.79,15.49 -0.75,2.11 -1.77,4.12 -3.03,5.97 -1.36,-10.55 -5.04,-20.68 -10.78,-29.64 -0.81,-1.23 -1.65,-2.45 -2.49,-3.63 -0.94,-1.4 -2.85,-1.78 -4.25,-0.83 -1.41,0.94 -1.78,2.85 -0.84,4.26 0.03,0.04 0.06,0.08 0.1,0.13 0.79,1.12 1.58,2.27 2.37,3.46 6.4,10.22 9.97,21.96 10.36,34.02 -0.02,1.7 1.35,3.08 3.04,3.09 0.8,0.01 1.57,-0.3 2.15,-0.85 4.02,-3.98 7.16,-8.77 9.19,-14.05 0.65,-2.03 1.08,-4.12 1.29,-6.24l2.66 4.53c8.87,16.22 23.75,47.11 23.75,71.71 0,36.17 -24.46,50.56 -40.11,56.06 4.81,-7.19 7.3,-15.7 7.13,-24.35 0.48,-21.14 -16,-44.17 -16.7,-45.12 -0.99,-1.37 -2.91,-1.68 -4.28,-0.69 -0.94,0.67 -1.42,1.82 -1.24,2.96 0.22,1.59 0.25,3.2 0.1,4.79 -0.96,-3.51 -2.47,-6.85 -4.46,-9.9 -4.53,-7.15 -10.6,-13.2 -17.77,-17.7 -1.49,-0.82 -3.35,-0.28 -4.17,1.21 -0.31,0.56 -0.44,1.21 -0.36,1.85 0.6,5.4 0.43,10.86 -0.48,16.23 -2.04,9.56 -6.41,13.96 -13.63,21.24 -1.96,1.97 -4.09,4.12 -6.33,6.54 -1.3,1.31 -2.52,2.71 -3.64,4.18 -1,1.37 -0.7,3.29 0.66,4.29 1.33,0.97 3.19,0.72 4.21,-0.57 0.99,-1.29 2.06,-2.52 3.2,-3.68 2.26,-2.41 4.34,-4.52 6.26,-6.45 7.45,-7.52 12.84,-12.95 15.26,-24.28 0.75,-3.82 1.08,-7.71 0.98,-11.61 4.12,3.52 7.72,7.61 10.7,12.13 2.98,4.78 4.64,10.25 4.83,15.87 -0.01,1.7 1.36,3.08 3.05,3.09 0.8,0.01 1.57,-0.3 2.14,-0.85 2.11,-2.07 3.76,-4.56 4.84,-7.31 4.66,8.18 10.95,21.52 10.68,33.63 -0.53,22.83 -13.73,27.63 -14.27,27.81 -1.61,0.51 -2.51,2.23 -2,3.85 0.41,1.28 1.61,2.15 2.96,2.14 0.12,0 0.25,-0.01 0.37,-0.02 0.59,-0.07 58.2,-7.81 58.2,-65.35 0,-24.67 -13.32,-54.21 -24.54,-74.73z"/>
    <path class="fil0" d="M61.09 172.18c-7.77,-2.67 -13.03,-13.13 -13.7,-19.34 -0.34,-2.93 -0.19,-5.91 0.46,-8.8 0.38,-1.65 -0.65,-3.29 -2.3,-3.68 -1.65,-0.38 -3.29,0.65 -3.68,2.3 -0.8,3.56 -1,7.22 -0.58,10.84 0.93,6.25 3.55,12.13 7.56,17 -14.95,-2.89 -39.61,-11.13 -42.32,-34.16 -2.35,-19.98 5.73,-30 16.9,-43.87l0.93 -1.16c5,-6.88 6.77,-15.6 4.85,-23.88 4.41,3 8.43,6.56 11.94,10.6 2.01,2.67 3.36,5.78 3.95,9.08 0.03,0.27 0.05,0.45 0.06,0.52 0.19,1.65 1.68,2.84 3.34,2.66 1.65,-0.16 2.88,-1.61 2.76,-3.27 0,-0.04 0,-0.23 -0.05,-0.53 -0.33,-3.17 -2.31,-27.18 10.06,-43.25 13.9,-18.07 17.71,-24.5 18.01,-35.23 -0.09,-5.23 -1.05,-10.41 -2.84,-15.33 6.39,4.73 12.12,10.29 17.05,16.52 1.05,1.33 2.98,1.56 4.31,0.51 1.33,-1.05 1.55,-2.98 0.5,-4.31 -7.32,-9.44 -16.46,-17.33 -26.86,-23.21 -1.51,-0.77 -3.36,-0.18 -4.13,1.32 -0.45,0.87 -0.45,1.9 -0.02,2.77 3.28,6.77 5.27,14.09 5.86,21.59 -0.24,8.55 -3.06,13.88 -16.76,31.67 -6.96,9.82 -10.93,21.43 -11.45,33.45 -5.85,-5.86 -12.33,-11.06 -19.33,-15.48 -1.44,-0.91 -3.33,-0.48 -4.24,0.95 -0.54,0.86 -0.63,1.92 -0.23,2.85 0.07,0.15 6.64,15.97 -1.56,26.17l-0.93 1.14c-11.19,13.9 -20.85,25.9 -18.21,48.44 4.5,38.3 57.28,40.99 59.52,41.09l0.13 0c1.7,0 3.07,-1.37 3.07,-3.07 0,-1.31 -0.83,-2.47 -2.07,-2.9l0 0z"/>
   </g>
  </g>
 </g>
</svg>
