<?xml version="1.0" encoding="UTF-8"?>
<!DOCTYPE svg PUBLIC "-//W3C//DTD SVG 1.1//EN" "http://www.w3.org/Graphics/SVG/1.1/DTD/svg11.dtd">
<!-- Creator: CorelDRAW 2020 (64 Bit) -->
<svg xmlns="http://www.w3.org/2000/svg" xml:space="preserve" width="91.44mm" height="91.44mm" version="1.1" style="shape-rendering:geometricPrecision; text-rendering:geometricPrecision; image-rendering:optimizeQuality; fill-rule:evenodd; clip-rule:evenodd"
viewBox="0 0 9144 9144"
 xmlns:xlink="http://www.w3.org/1999/xlink"
 xmlns:xodm="http://www.corel.com/coreldraw/odm/2003">
 <defs>
  <style type="text/css">
   <![CDATA[
    .fil3 {fill:#FEFEFE}
    .fil4 {fill:#006346}
    .fil0 {fill:#006346}
    .fil1 {fill:#FFCC13}
    .fil2 {fill:#FEFEFE;fill-rule:nonzero}
    .fil5 {fill:#FFCC29;fill-rule:nonzero}
   ]]>
  </style>
 </defs>
 <g id="Camada_x0020_1">
  <metadata id="CorelCorpID_0Corel-Layer"/>
  <rect class="fil0" x="0" y="2743.2" width="9144" height="3657.57"/>
  <g id="_1742035131984">
   <polygon class="fil1" points="323.17,5440.06 8820.83,5440.06 8820.83,5505.87 323.17,5505.87 "/>
   <path class="fil2" d="M4332.84 5901.3l0 113.67 -65.96 0 0 -313.46 125.83 0c37.88,0 67.58,9.19 89.34,27.55 21.68,18.37 32.55,42.55 32.55,72.6 0,29.98 -10.87,54.08 -32.55,72.3 -21.76,18.22 -51.46,27.34 -89.34,27.34l-59.87 0zm0 -48.43l59.87 0c18.43,0 32.33,-4.77 41.81,-14.32 9.49,-9.56 14.28,-21.68 14.28,-36.45 0,-15.13 -4.71,-27.55 -14.12,-37.4 -9.41,-9.84 -23.38,-14.69 -41.97,-14.69l-59.87 0 0 102.86zm294.94 36.82l0 125.28 -65.96 0 0 -313.46 113.87 0c37.58,0 66.89,8.15 88.03,24.46 21.21,16.32 31.79,39.02 31.79,68.12 0,16.1 -4.48,29.98 -13.43,41.66 -9.02,11.69 -22.06,21.16 -39.27,28.29 19.45,5.44 33.41,14.62 41.97,27.33 8.49,12.79 12.73,28.59 12.73,47.4l0 23c0,8.74 1.24,17.93 3.78,27.48 2.47,9.55 6.72,16.6 12.73,21.16l0 4.56 -68.04 0c-6.02,-4.64 -9.88,-12.2 -11.65,-22.85 -1.7,-10.59 -2.55,-20.88 -2.55,-30.72l0 -22.19c0,-15.65 -4.47,-27.85 -13.5,-36.52 -8.95,-8.67 -21.6,-13 -38.03,-13l-52.47 0zm0 -48.43l46.76 0c18.59,0 32.32,-3.75 41.42,-11.24 9.03,-7.42 13.51,-18.52 13.51,-33.13 0,-14.34 -4.56,-25.72 -13.66,-34.24 -9.1,-8.46 -22.45,-12.64 -40.12,-12.64l-47.91 0 0 91.25zm495.23 45.2c0,38.57 -12.73,70.38 -38.19,95.44 -25.46,25.05 -58.64,37.55 -99.45,37.63 -40.73,-0.08 -73.75,-12.58 -99.06,-37.7 -25.3,-25.13 -37.96,-56.95 -37.96,-95.37l0 -56.44c0,-38.28 12.66,-70.02 37.89,-95.22 25.22,-25.21 58.09,-37.77 98.67,-37.77 40.81,0 74.06,12.56 99.67,37.77 25.62,25.2 38.43,56.94 38.43,95.22l0 56.44zm-65.81 -56.81c0,-24.47 -6.41,-44.45 -19.21,-60.1 -12.81,-15.65 -30.48,-23.44 -53.08,-23.44 -22.3,0 -39.66,7.79 -52.16,23.44 -12.42,15.65 -18.59,35.63 -18.59,60.1l0 56.81c0,24.83 6.25,45.04 18.75,60.68 12.5,15.65 30.01,23.45 52.46,23.45 22.61,0 40.19,-7.8 52.85,-23.45 12.65,-15.64 18.98,-35.85 18.98,-60.68l0 -56.81zm341.31 -79.64l-94.05 0 0 264.96 -65.96 0 0 -264.96 -92.66 0 0 -48.5 252.67 0 0 48.5zm224.19 127.18l-122.05 0 0 89.57 145.12 0 0 48.21 -211.08 0 0 -313.46 210.62 0 0 48.5 -144.66 0 0 78.76 122.05 0 0 48.42zm316.24 34.02l0.46 1.26c0.54,33.5 -10.11,59.66 -32.1,78.61 -22.06,18.96 -52.38,28.37 -91.11,28.45 -39.5,-0.08 -71.36,-12.13 -95.59,-36.31 -24.3,-24.17 -36.41,-55.47 -36.41,-93.75l0 -62.24c0,-38.14 11.8,-69.43 35.49,-93.76 23.68,-24.32 54.7,-36.44 93.12,-36.44 40.12,0 71.44,9.33 94.04,27.99 22.61,18.67 33.56,44.89 33.02,78.77l-0.46 1.33 -64.19 0c0,-20.14 -5.09,-35.13 -15.28,-44.9 -10.18,-9.85 -25.92,-14.77 -47.13,-14.77 -19.75,0 -35.18,7.57 -46.22,22.7 -11.11,15.14 -16.58,34.69 -16.58,58.64l0 62.68c0,24.1 5.78,43.79 17.51,59 11.65,15.21 27.85,22.77 48.68,22.77 19.75,0 34.49,-4.91 44.21,-14.69 9.72,-9.84 14.58,-24.98 14.58,-45.34l63.96 0zm-100.99 102.87l-2.55 12.27c9.64,1.62 17.75,5.37 24.22,11.25 6.49,5.88 9.73,14.55 9.73,26.01 0,15.36 -6.87,27.63 -20.68,36.81 -13.81,9.18 -33.33,13.82 -58.63,13.82l-1.62 -34.68c7.71,0 13.81,-1.48 18.28,-4.42 4.56,-2.93 6.79,-7.42 6.79,-13.44 0,-5.88 -2.39,-9.99 -7.25,-12.41 -4.79,-2.36 -13.04,-3.91 -24.84,-4.64l7.02 -30.57 49.53 0zm320.17 -66.71l-106.7 0 -22.15 67.6 -68.89 0 110.94 -313.46 67.58 0 110.56 313.46 -68.97 0 -22.37 -67.6zm-90.43 -49.31l74.38 0 -36.34 -110.44 -1.39 0 -36.65 110.44zm120.9 -282.82c0,13.82 -4.47,25.58 -13.43,35.2 -9.02,9.7 -20.36,14.55 -34.02,14.55 -10.57,0 -22.53,-3.08 -35.87,-9.34 -13.27,-6.24 -23.92,-9.39 -31.71,-9.39 -5.48,0 -9.95,2.35 -13.58,6.97 -3.62,4.7 -5.4,10.28 -5.4,16.68l-35.25 -9.04c0,-13.44 4.47,-25.2 13.42,-35.19 8.95,-9.92 20.21,-14.92 33.79,-14.92 8.41,0 19.9,3.09 34.33,9.33 14.5,6.24 25.61,9.41 33.49,9.41 5.09,0 9.64,-2.35 13.57,-6.91 3.86,-4.62 5.86,-10.29 5.86,-16.97l34.8 9.62zm356.28 271.22c0,38.57 -12.73,70.38 -38.19,95.44 -25.46,25.05 -58.64,37.55 -99.45,37.63 -40.73,-0.08 -73.75,-12.58 -99.06,-37.7 -25.31,-25.13 -37.96,-56.95 -37.96,-95.37l0 -56.44c0,-38.28 12.65,-70.02 37.88,-95.22 25.23,-25.21 58.1,-37.77 98.68,-37.77 40.81,0 74.06,12.56 99.67,37.77 25.62,25.2 38.43,56.94 38.43,95.22l0 56.44zm-65.81 -56.81c0,-24.47 -6.41,-44.45 -19.22,-60.1 -12.8,-15.65 -30.47,-23.44 -53.07,-23.44 -22.3,0 -39.66,7.79 -52.16,23.44 -12.42,15.65 -18.59,35.63 -18.59,60.1l0 56.81c0,24.83 6.25,45.04 18.75,60.68 12.5,15.65 30.01,23.45 52.46,23.45 22.61,0 40.19,-7.8 52.84,-23.45 12.66,-15.64 18.99,-35.85 18.99,-60.68l0 -56.81zm345.39 100.3l4.01 17.19 1.4 0 3.85 -16.52 71.67 -229.11 69.59 0 -111.87 313.46 -67.81 0 -111.63 -313.46 69.59 0 71.2 228.44zm370.4 -52.76l-122.05 0 0 89.57 145.11 0 0 48.21 -211.07 0 0 -313.46 210.61 0 0 48.5 -144.65 0 0 78.76 122.05 0 0 48.42zm139.95 137.78l-66.05 0 0 -313.46 66.05 0 0 313.46zm312.14 -103.76l0.46 1.26c0.54,33.5 -10.11,59.66 -32.09,78.61 -22.07,18.96 -52.39,28.37 -91.12,28.45 -39.5,-0.08 -71.36,-12.13 -95.58,-36.31 -24.31,-24.17 -36.42,-55.47 -36.42,-93.75l0 -62.24c0,-38.14 11.8,-69.43 35.49,-93.76 23.68,-24.32 54.7,-36.44 93.12,-36.44 40.12,0 71.44,9.33 94.05,27.99 22.6,18.67 33.55,44.89 33.01,78.77l-0.46 1.33 -64.19 0c0,-20.14 -5.09,-35.13 -15.27,-44.9 -10.19,-9.85 -25.92,-14.77 -47.14,-14.77 -19.75,0 -35.18,7.57 -46.21,22.7 -11.11,15.14 -16.59,34.69 -16.59,58.64l0 62.68c0,24.1 5.78,43.79 17.51,59 11.65,15.21 27.86,22.77 48.68,22.77 19.75,0 34.49,-4.91 44.21,-14.69 9.72,-9.84 14.58,-24.98 14.58,-45.34l63.96 0zm308.44 -209.7l0 205.15c0,35.34 -12.27,62.97 -36.8,82.88 -24.53,19.99 -56.4,29.91 -95.59,29.99 -39.04,-0.08 -70.75,-10 -95.04,-29.99 -24.39,-19.91 -36.49,-47.54 -36.49,-82.88l0 -205.15 66.19 0 0 205.15c0,21.01 5.86,36.96 17.59,48.05 11.8,11.03 27.69,16.53 47.75,16.53 20.29,0 36.42,-5.5 48.37,-16.53 11.89,-11.09 17.82,-27.04 17.82,-48.05l0 -205.15 66.2 0zm123.21 265.25l147.35 0 0 48.21 -213.31 0 0 -313.46 65.96 0 0 265.25zm367.07 -19.39l-106.7 0 -22.14 67.6 -68.9 0 110.94 -313.46 67.58 0 110.56 313.46 -68.97 0 -22.37 -67.6zm-90.42 -49.31l74.37 0 -36.34 -110.44 -1.39 0 -36.64 110.44zm279.35 -8.37l0 125.28 -65.96 0 0 -313.46 113.87 0c37.58,0 66.89,8.15 88.03,24.46 21.21,16.32 31.79,39.02 31.79,68.12 0,16.1 -4.48,29.98 -13.43,41.66 -9.02,11.69 -22.06,21.16 -39.27,28.29 19.45,5.44 33.41,14.62 41.97,27.33 8.49,12.79 12.73,28.59 12.73,47.4l0 23c0,8.74 1.24,17.93 3.78,27.48 2.47,9.55 6.72,16.6 12.73,21.16l0 4.56 -68.04 0c-6.02,-4.64 -9.88,-12.2 -11.65,-22.85 -1.7,-10.59 -2.55,-20.88 -2.55,-30.72l0 -22.19c0,-15.65 -4.47,-27.85 -13.5,-36.52 -8.95,-8.67 -21.6,-13 -38.03,-13l-52.47 0zm0 -48.43l46.76 0c18.59,0 32.32,-3.75 41.42,-11.24 9.03,-7.42 13.51,-18.52 13.51,-33.13 0,-14.34 -4.56,-25.72 -13.66,-34.24 -9.1,-8.46 -22.45,-12.64 -40.12,-12.64l-47.91 0 0 91.25z"/>
   <g>
    <path class="fil3" d="M1111.68 3029.76c-384.85,0 -691.99,250.38 -779.67,574.85 20.87,204.25 40.84,409.59 62.07,634.07l-0.01 0 0 1071.4 374.08 0 0 -721.18c104.43,48.45 220.8,75.54 343.53,75.54 451.39,0 817.34,-365.93 817.34,-817.33 0,-451.42 -365.95,-817.35 -817.34,-817.35z"/>
    <path class="fil4" d="M384.69 4232.72l379.56 -4.3 2.94 21.17 400.72 1.98c113.99,-92.73 425.87,108.21 433.97,-142.21l0 -277.25c-23.34,-86.71 -77.78,-131.36 -123.65,-183.78 16.69,-19.65 63.62,-0.61 73.86,-17.28 -26.72,-91.02 -84.19,-73.93 -148.58,-35.01 -50.92,-130.28 -121.68,-252.61 -200.38,-271.79l-729.09 0c-65.47,86.41 -109.51,149.7 -150.86,275.14l61.51 633.33z"/>
    <path class="fil2" d="M846.66 5265.15l0 -488.78 74.41 0 0 74.87c18.98,-34.68 36.58,-57.6 52.73,-68.58 16.17,-11.15 33.9,-16.65 53.21,-16.65 27.94,0 56.34,8.79 85.23,26.21l-29.5 76.44c-20.1,-11.29 -40.18,-16.95 -60.28,-16.95 -18.04,0 -34.21,5.5 -48.49,16.33 -14.29,10.83 -24.48,25.89 -30.62,45.2 -9.26,29.35 -13.82,61.53 -13.82,96.53l0 255.38 -82.87 0zm283.48 -244.38c0,-90.26 25.12,-157.13 75.5,-200.61 41.9,-36.1 93.24,-54.15 153.67,-54.15 67.03,0 121.96,21.97 164.65,65.92 42.54,43.79 63.88,104.55 63.88,181.92 0,62.79 -9.43,112.08 -28.25,148.01 -18.83,35.95 -46.3,63.89 -82.4,83.82 -35.95,19.94 -75.36,29.83 -117.88,29.83 -68.44,0 -123.7,-21.82 -165.9,-65.61 -42.23,-43.79 -63.27,-106.89 -63.27,-189.13zm84.76 0.14c0,62.47 13.65,109.26 40.97,140.18 27.47,31.08 61.84,46.61 103.44,46.61 41.13,0 75.34,-15.53 102.8,-46.77 27.32,-31.24 40.97,-78.79 40.97,-142.68 0,-60.27 -13.82,-105.95 -41.28,-136.87 -27.47,-31.08 -61.68,-46.62 -102.49,-46.62 -41.6,0 -75.97,15.38 -103.44,46.3 -27.32,30.92 -40.97,77.55 -40.97,139.85zm789.35 65.31l80.99 11.29c-8.95,55.72 -31.54,99.21 -68.11,130.75 -36.57,31.55 -81.63,47.25 -134.84,47.25 -66.7,0 -120.39,-21.82 -160.87,-65.45 -40.65,-43.64 -60.91,-106.11 -60.91,-187.42 0,-52.74 8.79,-98.72 26.2,-138.27 17.45,-39.41 43.96,-69.07 79.74,-88.69 35.63,-19.78 74.41,-29.67 116.48,-29.67 52.9,0 96.36,13.34 129.95,40.18 33.75,26.84 55.42,64.99 64.83,114.27l-80.04 12.25c-7.7,-32.81 -21.19,-57.45 -40.82,-74.09 -19.45,-16.48 -43,-24.8 -70.64,-24.8 -41.73,0 -75.65,14.92 -101.87,44.74 -26.05,29.97 -39.07,77.06 -39.07,141.73 0,65.61 12.55,113.17 37.68,142.83 25.27,29.66 58.06,44.58 98.4,44.58 32.66,0 59.8,-9.89 81.48,-29.82 21.81,-19.78 35.62,-50.39 41.42,-91.66zm470.89 117.71c-30.78,26.22 -60.43,44.58 -88.83,55.41 -28.42,10.83 -58.87,16.17 -91.52,16.17 -53.67,0 -94.96,-13.03 -123.84,-39.24 -28.88,-26.06 -43.33,-59.49 -43.33,-100.15 0,-23.85 5.49,-45.67 16.34,-65.45 10.97,-19.77 25.26,-35.47 42.85,-47.4 17.73,-11.92 37.51,-21.03 59.63,-27.15 16.34,-4.24 40.97,-8.32 73.79,-12.4 66.84,-7.85 116.3,-17.42 147.85,-28.42 0.3,-11.29 0.47,-18.51 0.47,-21.5 0,-33.58 -7.85,-57.29 -23.56,-71.1 -21.17,-18.67 -52.74,-27.94 -94.48,-27.94 -39.08,0 -67.97,6.91 -86.48,20.56 -18.68,13.66 -32.34,37.84 -41.28,72.68l-81 -11.31c7.38,-34.68 19.47,-62.78 36.43,-84.13 16.93,-21.34 41.41,-37.66 73.45,-49.29 31.85,-11.45 69.06,-17.26 111.12,-17.26 41.76,0 75.82,4.87 102.03,14.76 26.06,9.89 45.36,22.13 57.61,37.04 12.24,14.91 20.87,33.75 25.9,56.51 2.66,14.13 4.08,39.55 4.08,76.13l0 109.87c0,76.75 1.71,125.25 5.17,145.81 3.29,20.57 10.19,40.18 20.25,59.02l-86.65 0c-8.3,-17.42 -13.65,-37.82 -16,-61.22zm-6.59 -183.64c-30.14,12.24 -75.35,22.61 -135.61,31.08 -34.24,4.86 -58.39,10.35 -72.52,16.48 -14.14,6.12 -24.95,15.06 -32.64,26.68 -7.71,11.77 -11.62,24.8 -11.62,39.24 0,21.82 8.3,40.19 25.09,54.78 16.81,14.6 41.29,21.97 73.48,21.97 31.87,0 60.27,-6.9 85.22,-20.87 24.81,-13.82 43.18,-32.8 54.79,-56.82 8.93,-18.68 13.34,-46.14 13.34,-82.4l0.47 -30.14zm210.17 244.86l0 -488.78 74.39 0 0 74.87c18.99,-34.68 36.57,-57.6 52.75,-68.58 16.17,-11.15 33.9,-16.65 53.21,-16.65 27.94,0 56.34,8.79 85.23,26.21l-29.53 76.44c-20.07,-11.29 -40.17,-16.95 -60.26,-16.95 -18.06,0 -34.22,5.5 -48.51,16.33 -14.28,10.83 -24.48,25.89 -30.59,45.2 -9.26,29.35 -13.82,61.53 -13.82,96.53l0 255.38 -82.87 0z"/>
    <path class="fil5" d="M3033.15 5267.29l0 -490.49 318 0c64.74,0 116.63,4.91 155.87,14.85 39.08,9.93 69.66,25.23 91.74,45.9 22.3,20.55 33.33,42.12 33.33,64.73 0,20.9 -9.87,40.65 -29.38,59.14 -19.52,18.51 -49.12,33.45 -88.77,44.88 51.29,8.68 90.74,23.51 118.15,44.53 27.65,20.88 41.47,45.65 41.47,74.2 0,23.07 -8.51,44.41 -25.26,64.16 -16.78,19.75 -37.52,34.94 -62.13,45.68 -24.68,10.61 -55.63,18.71 -92.74,24.2 -37.3,5.47 -82.86,8.22 -136.92,8.22l-323.36 0zm112.48 -284.28l183.26 0c49.7,0 85.42,-1.95 106.94,-5.72 28.57,-4.91 50.09,-13.13 64.5,-24.55 14.41,-11.41 21.71,-25.69 21.71,-42.91 0,-16.34 -6.71,-30.73 -20.32,-43.05 -13.43,-12.44 -32.75,-21.01 -57.83,-25.57 -25.03,-4.58 -68.06,-6.86 -128.79,-6.86l-169.47 0 0 148.66zm0 226.73l211.08 0c36.29,0 61.74,-0.8 76.54,-2.39 25.66,-2.64 47.34,-7.09 64.7,-13.35 17.38,-6.29 31.58,-15.42 42.84,-27.41 11.22,-11.98 16.73,-25.8 16.73,-41.45 0,-18.38 -8.07,-34.26 -24.44,-47.83 -16.17,-13.6 -38.69,-23.07 -67.47,-28.54 -28.63,-5.49 -70.05,-8.22 -123.9,-8.22l-196.08 0 0 169.19zm684.17 57.55l0 -490.49 375.64 0c75.57,0 132.97,4.45 172.23,13.26 39.26,8.79 70.6,24.31 94.11,46.57 23.45,22.27 35.11,46.94 35.11,73.86 0,34.83 -19.53,64.17 -58.42,88.04 -38.83,23.87 -98.82,38.92 -180.11,45.43 29.8,8.22 52.28,16.45 67.67,24.45 32.75,17.34 63.74,39.15 92.73,65.29l146.58 133.59 -140.05 0 -112.09 -102.08c-32.55,-29.56 -59.57,-52.05 -80.67,-67.69 -21.31,-15.65 -40.25,-26.5 -57.01,-32.77 -16.56,-6.17 -33.75,-10.51 -51.11,-13.02 -12.65,-1.48 -33.33,-2.28 -62.35,-2.28l-129.8 0 0 217.84 -112.46 0zm112.46 -274.01l240.7 0c51.28,0 91.11,-3.08 119.91,-9.25 28.82,-6.05 50.71,-15.88 65.51,-29.45 15.02,-13.49 22.51,-28.1 22.51,-43.96 0,-23.18 -14.43,-42.35 -43.41,-57.32 -29.01,-14.95 -74.78,-22.38 -137.31,-22.38l-267.91 0 0 162.36zm647.08 274.01l325.12 -490.49 123.29 0 345.07 490.49 -127.64 0 -98.03 -148.66 -356.89 0 -91.95 148.66 -118.97 0zm243.84 -201.41l288.84 0 -88.39 -135.97c-26.63,-41.34 -46.75,-75.46 -60.75,-102.41 -11.67,31.98 -27.24,63.37 -46.79,94.42l-92.91 143.96zm601.92 43.85l105.38 -5.48c4.93,24.67 16.56,44.87 34.9,60.74 18.36,15.75 46.75,28.54 85.23,38.35 38.47,9.72 81.88,14.62 130.01,14.62 42.82,0 80.5,-3.66 113.25,-11.08 32.75,-7.41 56.99,-17.58 72.96,-30.47 16,-12.9 24.09,-26.94 24.09,-42.02 0,-15.3 -7.71,-28.65 -23.09,-40.19 -15.39,-11.42 -40.84,-21.01 -76.31,-28.89 -22.72,-5.01 -73.02,-13 -150.94,-23.85 -77.95,-10.85 -132.42,-21.01 -163.54,-30.6 -40.48,-12.33 -70.43,-27.63 -90.18,-45.79 -19.94,-18.15 -29.8,-38.59 -29.8,-61.07 0,-24.9 12.22,-48.07 36.51,-69.54 24.26,-21.57 59.59,-37.91 106.36,-49.09 46.55,-11.18 98.44,-16.79 155.45,-16.79 62.72,0 118.13,5.83 166.09,17.59 47.92,11.64 84.84,28.89 110.69,51.72 25.84,22.72 39.65,48.51 41.62,77.3l-107.69 4.78c-5.77,-30.93 -25.28,-54.34 -58.62,-70.1 -33.33,-15.86 -82.66,-23.74 -147.79,-23.74 -67.82,0 -117.36,7.2 -148.31,21.57 -30.99,14.39 -46.57,31.75 -46.57,52.07 0,17.59 11.04,32.09 32.92,43.49 21.72,11.32 77.95,23.07 169.1,34.94 91.11,12 153.66,22.39 187.62,31.29 49.13,13.13 85.59,29.69 109.07,49.89 23.51,20.1 35.14,43.28 35.14,69.54 0,26.13 -12.83,50.57 -38.69,73.62 -25.83,23.08 -62.7,40.99 -111.08,53.79 -48.29,12.79 -102.56,19.17 -163.13,19.17 -76.57,0 -140.7,-6.51 -192.33,-19.4 -51.93,-12.9 -92.37,-32.32 -121.77,-58.34 -29.56,-25.93 -44.99,-55.26 -46.55,-88.03zm845.19 157.56l0 -490.49 112.46 0 0 490.49 -112.46 0zm305.18 0l0 -490.49 112.49 0 0 432.94 416.66 0 0 57.55 -529.15 0z"/>
    <path class="fil3" d="M483.46 4054.8l599.13 0c9.26,35.05 -9.27,79.02 -43.64,87.28l-505.88 0c-40.35,-4.29 -56.88,-54.22 -49.61,-87.28z"/>
    <path class="fil3" d="M1352.39 3962.55l63.98 -0.5c42.88,-0.33 105.63,-14.19 105.63,-68.94l0 -93.23c0,-34.93 -28.56,-63.49 -63.48,-63.49l-41.67 0c-34.9,0 -63.27,28.57 -63.47,63.49l-0.99 162.67z"/>
    <path class="fil3" d="M1492.24 4075.63l-152.76 0c-35.7,0 -59.77,10.5 -53.48,43.39 5.97,31.04 95.84,73.65 129.87,73.65l76.37 0c30.57,0 55.54,-24.98 55.54,-55.55l0 -5.94c0,-30.55 -24.97,-55.55 -55.54,-55.55z"/>
    <path class="fil3" d="M335.67 3610.4l1039.52 0c-10.9,-105.19 -95.66,-253.92 -189.45,-253.92 -233.76,0 -448.67,0 -682.43,0 -86.3,-5.62 -145.81,163.33 -167.64,253.92z"/>
   </g>
  </g>
 </g>
</svg>
