<?xml version="1.0" encoding="UTF-8"?>
<!DOCTYPE svg PUBLIC "-//W3C//DTD SVG 1.1//EN" "http://www.w3.org/Graphics/SVG/1.1/DTD/svg11.dtd">
<!-- Creator: CorelDRAW 2020 (64 Bit) -->
<svg xmlns="http://www.w3.org/2000/svg" xml:space="preserve" width="160px" height="160px" version="1.1" style="shape-rendering:geometricPrecision; text-rendering:geometricPrecision; image-rendering:optimizeQuality; fill-rule:evenodd; clip-rule:evenodd"
viewBox="0 0 160 160"
 xmlns:xlink="http://www.w3.org/1999/xlink"
 xmlns:xodm="http://www.corel.com/coreldraw/odm/2003">
 <defs>
  <style type="text/css">
   <![CDATA[
    .str0 {stroke:#006346;stroke-width:2.36;stroke-miterlimit:22.9256}
    .fil1 {fill:#FEFEFE}
    .fil0 {fill:#006346}
    .fil4 {fill:#FFCC13}
    .fil2 {fill:#FEFEFE;fill-rule:nonzero}
    .fil3 {fill:#FFCC29;fill-rule:nonzero}
   ]]>
  </style>
 </defs>
 <g id="Camada_x0020_1">
  <metadata id="CorelCorpID_0Corel-Layer"/>
  <g id="_2259930118352">
   <circle class="fil0 str0" cx="80" cy="80" r="25"/>
   <path class="fil1" d="M73.42 62.44c-4.85,0 -8.73,3.16 -9.83,7.25 0.26,2.57 0.51,5.16 0.78,7.99l0 0 0 13.51 4.72 0 0 -9.09c1.31,0.61 2.78,0.95 4.33,0.95 5.69,0 10.3,-4.61 10.3,-10.3 0,-5.69 -4.61,-10.31 -10.3,-10.31z"/>
   <path class="fil0" d="M64.25 77.61l4.79 -0.05 0.03 0.26 5.06 0.03c1.43,-1.17 5.37,1.36 5.47,-1.8l0 -3.49c-0.3,-1.09 -0.98,-1.66 -1.56,-2.32 0.21,-0.25 0.8,-0.01 0.93,-0.22 -0.34,-1.14 -1.06,-0.93 -1.87,-0.44 -0.64,-1.64 -1.54,-3.18 -2.53,-3.42l-9.19 0c-0.83,1.08 -1.38,1.88 -1.9,3.46l0.77 7.99z"/>
   <path class="fil2" d="M70.08 90.63l0 -6.17 0.93 0 0 0.95c0.24,-0.44 0.47,-0.73 0.67,-0.87 0.2,-0.14 0.43,-0.21 0.67,-0.21 0.35,0 0.71,0.11 1.07,0.33l-0.37 0.97c-0.25,-0.14 -0.5,-0.22 -0.76,-0.22 -0.22,0 -0.43,0.07 -0.61,0.21 -0.18,0.14 -0.31,0.33 -0.38,0.57 -0.12,0.37 -0.18,0.77 -0.18,1.22l0 3.22 -1.04 0zm3.57 -3.09c0,-1.13 0.32,-1.98 0.95,-2.52 0.53,-0.46 1.18,-0.69 1.94,-0.69 0.85,0 1.54,0.28 2.08,0.83 0.53,0.56 0.8,1.32 0.8,2.3 0,0.79 -0.12,1.41 -0.36,1.86 -0.23,0.46 -0.58,0.81 -1.03,1.06 -0.46,0.25 -0.95,0.38 -1.49,0.38 -0.86,0 -1.56,-0.28 -2.09,-0.83 -0.53,-0.55 -0.8,-1.35 -0.8,-2.39zm1.07 0.01c0,0.79 0.17,1.37 0.52,1.76 0.34,0.4 0.77,0.59 1.3,0.59 0.52,0 0.95,-0.19 1.3,-0.59 0.34,-0.39 0.51,-0.99 0.51,-1.8 0,-0.76 -0.17,-1.33 -0.52,-1.72 -0.34,-0.39 -0.78,-0.59 -1.29,-0.59 -0.53,0 -0.96,0.19 -1.3,0.58 -0.35,0.39 -0.52,0.98 -0.52,1.77zm9.95 0.82l1.02 0.14c-0.11,0.71 -0.4,1.25 -0.86,1.65 -0.46,0.4 -1.03,0.6 -1.7,0.6 -0.84,0 -1.51,-0.28 -2.02,-0.83 -0.52,-0.55 -0.77,-1.34 -0.77,-2.36 0,-0.67 0.11,-1.25 0.33,-1.74 0.22,-0.5 0.55,-0.88 1,-1.12 0.45,-0.25 0.94,-0.38 1.47,-0.38 0.67,0 1.22,0.17 1.64,0.51 0.43,0.34 0.7,0.82 0.82,1.44l-1.01 0.15c-0.1,-0.41 -0.27,-0.72 -0.52,-0.93 -0.24,-0.21 -0.54,-0.31 -0.89,-0.31 -0.52,0 -0.95,0.19 -1.28,0.56 -0.33,0.38 -0.49,0.97 -0.49,1.79 0,0.83 0.15,1.43 0.47,1.8 0.32,0.37 0.73,0.56 1.24,0.56 0.41,0 0.76,-0.12 1.03,-0.37 0.27,-0.25 0.45,-0.64 0.52,-1.16zm5.94 1.49c-0.39,0.32 -0.76,0.56 -1.12,0.69 -0.36,0.14 -0.74,0.21 -1.15,0.21 -0.68,0 -1.2,-0.17 -1.57,-0.5 -0.36,-0.33 -0.54,-0.75 -0.54,-1.26 0,-0.3 0.07,-0.58 0.2,-0.83 0.14,-0.24 0.32,-0.44 0.54,-0.59 0.23,-0.15 0.48,-0.27 0.76,-0.35 0.2,-0.05 0.51,-0.1 0.93,-0.15 0.84,-0.1 1.46,-0.22 1.86,-0.36 0,-0.14 0.01,-0.23 0.01,-0.27 0,-0.43 -0.1,-0.72 -0.3,-0.9 -0.27,-0.23 -0.67,-0.35 -1.19,-0.35 -0.5,0 -0.86,0.09 -1.09,0.26 -0.24,0.17 -0.41,0.48 -0.52,0.92l-1.02 -0.15c0.09,-0.43 0.24,-0.79 0.45,-1.06 0.22,-0.27 0.53,-0.47 0.93,-0.62 0.4,-0.14 0.87,-0.22 1.4,-0.22 0.53,0 0.96,0.06 1.29,0.19 0.33,0.12 0.57,0.28 0.72,0.47 0.16,0.18 0.27,0.42 0.33,0.71 0.03,0.18 0.05,0.5 0.05,0.96l0 1.38c0,0.97 0.02,1.58 0.07,1.84 0.04,0.26 0.13,0.51 0.25,0.75l-1.09 0c-0.1,-0.22 -0.17,-0.48 -0.2,-0.77zm-0.08 -2.32c-0.38,0.15 -0.95,0.28 -1.71,0.39 -0.44,0.06 -0.74,0.13 -0.92,0.21 -0.18,0.08 -0.31,0.19 -0.41,0.34 -0.1,0.14 -0.15,0.31 -0.15,0.49 0,0.27 0.11,0.51 0.32,0.69 0.21,0.18 0.52,0.28 0.93,0.28 0.4,0 0.76,-0.09 1.07,-0.27 0.31,-0.17 0.54,-0.41 0.69,-0.71 0.11,-0.24 0.17,-0.58 0.17,-1.04l0.01 -0.38zm2.65 3.09l0 -6.17 0.93 0 0 0.95c0.24,-0.44 0.46,-0.73 0.67,-0.87 0.2,-0.14 0.43,-0.21 0.67,-0.21 0.35,0 0.71,0.11 1.07,0.33l-0.37 0.97c-0.25,-0.14 -0.51,-0.22 -0.76,-0.22 -0.23,0 -0.43,0.07 -0.61,0.21 -0.18,0.14 -0.31,0.33 -0.39,0.57 -0.11,0.37 -0.17,0.77 -0.17,1.22l0 3.22 -1.04 0z"/>
   <path class="fil3" d="M64.84 96.13l0 -3.75 2.43 0c0.5,0 0.9,0.04 1.2,0.11 0.29,0.08 0.53,0.2 0.7,0.36 0.17,0.15 0.25,0.32 0.25,0.49 0,0.16 -0.07,0.31 -0.22,0.45 -0.15,0.14 -0.38,0.26 -0.68,0.35 0.39,0.06 0.69,0.18 0.9,0.34 0.21,0.16 0.32,0.34 0.32,0.56 0,0.18 -0.07,0.34 -0.2,0.49 -0.12,0.15 -0.28,0.27 -0.47,0.35 -0.19,0.08 -0.43,0.15 -0.71,0.19 -0.28,0.04 -0.63,0.06 -1.04,0.06l-2.48 0zm0.86 -2.17l1.4 0c0.38,0 0.66,-0.02 0.82,-0.05 0.22,-0.03 0.38,-0.1 0.49,-0.18 0.11,-0.09 0.17,-0.2 0.17,-0.33 0,-0.13 -0.05,-0.24 -0.15,-0.33 -0.11,-0.1 -0.26,-0.16 -0.45,-0.2 -0.19,-0.03 -0.52,-0.05 -0.98,-0.05l-1.3 0 0 1.14zm0 1.73l1.62 0c0.27,0 0.47,-0.01 0.58,-0.02 0.2,-0.02 0.36,-0.05 0.5,-0.1 0.13,-0.05 0.24,-0.12 0.32,-0.21 0.09,-0.09 0.13,-0.2 0.13,-0.32 0,-0.14 -0.06,-0.26 -0.19,-0.36 -0.12,-0.11 -0.29,-0.18 -0.51,-0.22 -0.22,-0.04 -0.54,-0.06 -0.95,-0.06l-1.5 0 0 1.29zm5.23 0.44l0 -3.75 2.87 0c0.58,0 1.02,0.04 1.32,0.1 0.3,0.07 0.54,0.19 0.72,0.36 0.18,0.17 0.27,0.36 0.27,0.56 0,0.27 -0.15,0.49 -0.45,0.68 -0.3,0.18 -0.76,0.29 -1.38,0.34 0.23,0.07 0.4,0.13 0.52,0.19 0.25,0.13 0.49,0.3 0.71,0.5l1.12 1.02 -1.07 0 -0.86 -0.78c-0.25,-0.23 -0.45,-0.4 -0.61,-0.52 -0.17,-0.12 -0.31,-0.2 -0.44,-0.25 -0.13,-0.05 -0.26,-0.08 -0.39,-0.1 -0.1,-0.01 -0.25,-0.01 -0.48,-0.01l-0.99 0 0 1.66 -0.86 0zm0.86 -2.09l1.84 0c0.39,0 0.7,-0.03 0.92,-0.07 0.22,-0.05 0.39,-0.13 0.5,-0.23 0.11,-0.1 0.17,-0.22 0.17,-0.34 0,-0.17 -0.11,-0.32 -0.33,-0.43 -0.22,-0.12 -0.57,-0.18 -1.05,-0.18l-2.05 0 0 1.25zm4.95 2.09l2.48 -3.75 0.94 0 2.64 3.75 -0.98 0 -0.74 -1.14 -2.73 0 -0.7 1.14 -0.91 0zm1.86 -1.54l2.21 0 -0.68 -1.04c-0.2,-0.31 -0.36,-0.58 -0.46,-0.78 -0.09,0.24 -0.21,0.48 -0.36,0.72l-0.71 1.1zm4.6 0.34l0.81 -0.05c0.03,0.19 0.12,0.35 0.26,0.47 0.14,0.12 0.36,0.22 0.65,0.29 0.3,0.07 0.63,0.11 1,0.11 0.32,0 0.61,-0.03 0.86,-0.08 0.25,-0.06 0.44,-0.14 0.56,-0.24 0.12,-0.09 0.18,-0.2 0.18,-0.32 0,-0.11 -0.06,-0.22 -0.17,-0.3 -0.12,-0.09 -0.32,-0.16 -0.59,-0.22 -0.17,-0.04 -0.55,-0.1 -1.15,-0.19 -0.6,-0.08 -1.01,-0.16 -1.25,-0.23 -0.31,-0.09 -0.54,-0.21 -0.69,-0.35 -0.15,-0.14 -0.23,-0.3 -0.23,-0.47 0,-0.19 0.1,-0.36 0.28,-0.53 0.19,-0.16 0.46,-0.29 0.82,-0.37 0.35,-0.09 0.75,-0.13 1.18,-0.13 0.48,0 0.91,0.04 1.27,0.13 0.37,0.09 0.65,0.22 0.85,0.4 0.2,0.17 0.3,0.37 0.32,0.59l-0.83 0.04c-0.04,-0.24 -0.19,-0.42 -0.44,-0.54 -0.26,-0.12 -0.64,-0.18 -1.13,-0.18 -0.52,0 -0.9,0.05 -1.14,0.16 -0.23,0.11 -0.35,0.25 -0.35,0.4 0,0.14 0.08,0.25 0.25,0.33 0.16,0.09 0.59,0.18 1.29,0.27 0.7,0.09 1.18,0.17 1.43,0.24 0.38,0.1 0.66,0.23 0.84,0.38 0.18,0.15 0.27,0.33 0.27,0.53 0,0.2 -0.1,0.39 -0.3,0.56 -0.2,0.18 -0.48,0.32 -0.85,0.42 -0.37,0.09 -0.78,0.14 -1.24,0.14 -0.59,0 -1.08,-0.05 -1.47,-0.15 -0.4,-0.1 -0.71,-0.24 -0.93,-0.44 -0.23,-0.2 -0.35,-0.42 -0.36,-0.67zm6.46 1.2l0 -3.75 0.86 0 0 3.75 -0.86 0zm2.33 0l0 -3.75 0.86 0 0 3.31 3.18 0 0 0.44 -4.04 0z"/>
   <path class="fil1" d="M65.5 75.37l7.55 0c0.12,0.44 -0.12,0.99 -0.55,1.1l-6.38 0c-0.51,-0.06 -0.71,-0.69 -0.62,-1.1z"/>
   <path class="fil1" d="M76.45 74.2l0.81 0c0.54,-0.01 1.33,-0.18 1.33,-0.87l0 -1.18c0,-0.44 -0.36,-0.8 -0.8,-0.8l-0.52 0c-0.44,0 -0.8,0.36 -0.81,0.8l-0.01 2.05z"/>
   <path class="fil1" d="M78.22 75.63l-1.93 0c-0.45,0 -0.75,0.13 -0.67,0.55 0.07,0.39 1.2,0.92 1.63,0.92l0.97 0c0.38,0 0.7,-0.31 0.7,-0.7l0 -0.07c0,-0.39 -0.32,-0.7 -0.7,-0.7z"/>
   <path class="fil1" d="M63.63 69.76l13.11 0c-0.14,-1.32 -1.21,-3.2 -2.39,-3.2 -2.95,0 -5.66,0 -8.6,0 -1.09,-0.07 -1.84,2.06 -2.12,3.2z"/>
   <path class="fil2" d="M68.41 99.3l0 0.62 -0.36 0 0 -1.71 0.68 0c0.21,0 0.37,0.05 0.49,0.15 0.12,0.1 0.17,0.23 0.17,0.39 0,0.17 -0.05,0.3 -0.17,0.4 -0.12,0.1 -0.28,0.15 -0.49,0.15l-0.32 0zm0 -0.27l0.32 0c0.1,0 0.18,-0.02 0.23,-0.07 0.05,-0.06 0.08,-0.12 0.08,-0.2 0,-0.09 -0.03,-0.15 -0.08,-0.21 -0.05,-0.05 -0.13,-0.08 -0.23,-0.08l-0.32 0 0 0.56zm1.6 0.2l0 0.69 -0.36 0 0 -1.71 0.62 0c0.21,0 0.37,0.04 0.48,0.13 0.12,0.09 0.17,0.22 0.17,0.37 0,0.09 -0.02,0.17 -0.07,0.23 -0.05,0.06 -0.12,0.11 -0.21,0.15 0.1,0.03 0.18,0.08 0.23,0.15 0.04,0.07 0.06,0.16 0.06,0.26l0 0.13c0,0.04 0.01,0.09 0.03,0.15 0.01,0.05 0.03,0.09 0.06,0.11l0 0.03 -0.37 0c-0.03,-0.03 -0.05,-0.07 -0.06,-0.13 -0.01,-0.06 -0.01,-0.11 -0.01,-0.17l0 -0.12c0,-0.08 -0.03,-0.15 -0.08,-0.2 -0.04,-0.04 -0.11,-0.07 -0.2,-0.07l-0.29 0zm0 -0.26l0.26 0c0.1,0 0.17,-0.02 0.22,-0.06 0.05,-0.04 0.07,-0.1 0.07,-0.18 0,-0.08 -0.02,-0.14 -0.07,-0.19 -0.05,-0.04 -0.12,-0.07 -0.22,-0.07l-0.26 0 0 0.5zm2.7 0.25c0,0.21 -0.07,0.38 -0.21,0.52 -0.14,0.13 -0.32,0.2 -0.54,0.2 -0.22,0 -0.4,-0.07 -0.54,-0.2 -0.14,-0.14 -0.21,-0.31 -0.21,-0.52l0 -0.31c0,-0.21 0.07,-0.38 0.21,-0.52 0.14,-0.14 0.31,-0.2 0.53,-0.2 0.23,0 0.41,0.06 0.55,0.2 0.14,0.14 0.21,0.31 0.21,0.52l0 0.31zm-0.36 -0.31c0,-0.14 -0.04,-0.24 -0.11,-0.33 -0.07,-0.09 -0.16,-0.13 -0.29,-0.13 -0.12,0 -0.21,0.04 -0.28,0.13 -0.07,0.09 -0.1,0.19 -0.1,0.33l0 0.31c0,0.13 0.03,0.24 0.1,0.33 0.07,0.08 0.16,0.12 0.29,0.12 0.12,0 0.22,-0.04 0.28,-0.12 0.07,-0.09 0.11,-0.2 0.11,-0.33l0 -0.31zm1.86 -0.44l-0.52 0 0 1.45 -0.35 0 0 -1.45 -0.51 0 0 -0.26 1.38 0 0 0.26zm1.22 0.7l-0.67 0 0 0.48 0.79 0 0 0.27 -1.15 0 0 -1.71 1.15 0 0 0.26 -0.79 0 0 0.43 0.67 0 0 0.27zm1.72 0.18l0 0.01c0,0.18 -0.06,0.32 -0.17,0.43 -0.13,0.1 -0.29,0.15 -0.5,0.15 -0.22,0 -0.39,-0.07 -0.52,-0.2 -0.13,-0.13 -0.2,-0.3 -0.2,-0.51l0 -0.34c0,-0.2 0.06,-0.37 0.19,-0.51 0.13,-0.13 0.3,-0.19 0.51,-0.19 0.22,0 0.39,0.05 0.51,0.15 0.13,0.1 0.18,0.24 0.18,0.43l0 0 -0.35 0c0,-0.11 -0.03,-0.19 -0.08,-0.24 -0.06,-0.05 -0.14,-0.08 -0.26,-0.08 -0.11,0 -0.19,0.04 -0.25,0.12 -0.06,0.08 -0.09,0.19 -0.09,0.32l0 0.34c0,0.13 0.03,0.24 0.09,0.32 0.07,0.09 0.16,0.13 0.27,0.13 0.11,0 0.19,-0.03 0.24,-0.08 0.05,-0.06 0.08,-0.14 0.08,-0.25l0.35 0zm-0.55 0.56l-0.02 0.07c0.06,0.01 0.1,0.03 0.14,0.06 0.03,0.03 0.05,0.08 0.05,0.14 0,0.08 -0.04,0.15 -0.11,0.2 -0.08,0.05 -0.19,0.08 -0.32,0.08l-0.01 -0.19c0.04,0 0.07,-0.01 0.1,-0.03 0.02,-0.01 0.03,-0.04 0.03,-0.07 0,-0.03 -0.01,-0.05 -0.04,-0.07 -0.02,-0.01 -0.07,-0.02 -0.13,-0.02l0.04 -0.17 0.27 0zm1.74 -0.36l-0.58 0 -0.12 0.37 -0.38 0 0.61 -1.71 0.37 0 0.6 1.71 -0.38 0 -0.12 -0.37zm-0.49 -0.27l0.4 0 -0.2 -0.6 0 0 -0.2 0.6zm0.66 -1.54c0,0.08 -0.03,0.14 -0.08,0.19 -0.05,0.05 -0.11,0.08 -0.18,0.08 -0.06,0 -0.13,-0.02 -0.2,-0.05 -0.07,-0.03 -0.13,-0.05 -0.17,-0.05 -0.03,0 -0.05,0.01 -0.07,0.04 -0.02,0.02 -0.03,0.05 -0.03,0.09l-0.2 -0.05c0,-0.07 0.03,-0.14 0.08,-0.19 0.05,-0.06 0.11,-0.08 0.18,-0.08 0.05,0 0.11,0.01 0.19,0.05 0.08,0.03 0.14,0.05 0.18,0.05 0.03,0 0.05,-0.01 0.07,-0.04 0.03,-0.03 0.04,-0.06 0.04,-0.09l0.19 0.05zm1.93 1.48c0,0.21 -0.06,0.38 -0.2,0.52 -0.14,0.13 -0.32,0.2 -0.54,0.2 -0.23,0 -0.41,-0.07 -0.54,-0.2 -0.14,-0.14 -0.21,-0.31 -0.21,-0.52l0 -0.31c0,-0.21 0.07,-0.38 0.21,-0.52 0.13,-0.14 0.31,-0.2 0.53,-0.2 0.22,0 0.41,0.06 0.55,0.2 0.13,0.14 0.2,0.31 0.2,0.52l0 0.31zm-0.35 -0.31c0,-0.14 -0.04,-0.24 -0.11,-0.33 -0.07,-0.09 -0.16,-0.13 -0.29,-0.13 -0.12,0 -0.21,0.04 -0.28,0.13 -0.07,0.09 -0.1,0.19 -0.1,0.33l0 0.31c0,0.13 0.03,0.24 0.1,0.33 0.07,0.08 0.16,0.12 0.29,0.12 0.12,0 0.21,-0.04 0.28,-0.12 0.07,-0.09 0.11,-0.2 0.11,-0.33l0 -0.31zm1.88 0.54l0.02 0.1 0.01 0 0.02 -0.09 0.39 -1.25 0.38 0 -0.61 1.71 -0.37 0 -0.61 -1.71 0.38 0 0.39 1.24zm2.01 -0.28l-0.66 0 0 0.48 0.79 0 0 0.27 -1.15 0 0 -1.71 1.14 0 0 0.26 -0.78 0 0 0.43 0.66 0 0 0.27zm0.76 0.75l-0.36 0 0 -1.71 0.36 0 0 1.71zm1.7 -0.57l0.01 0.01c0,0.18 -0.06,0.32 -0.18,0.43 -0.12,0.1 -0.29,0.15 -0.5,0.15 -0.21,0 -0.38,-0.07 -0.52,-0.2 -0.13,-0.13 -0.19,-0.3 -0.19,-0.51l0 -0.34c0,-0.2 0.06,-0.37 0.19,-0.51 0.13,-0.13 0.3,-0.19 0.51,-0.19 0.21,0 0.38,0.05 0.51,0.15 0.12,0.1 0.18,0.24 0.18,0.43l0 0 -0.35 0c0,-0.11 -0.03,-0.19 -0.09,-0.24 -0.05,-0.05 -0.14,-0.08 -0.25,-0.08 -0.11,0 -0.2,0.04 -0.26,0.12 -0.06,0.08 -0.09,0.19 -0.09,0.32l0 0.34c0,0.13 0.04,0.24 0.1,0.32 0.06,0.09 0.15,0.13 0.26,0.13 0.11,0 0.19,-0.03 0.25,-0.08 0.05,-0.06 0.07,-0.14 0.07,-0.25l0.35 0zm1.68 -1.14l0 1.12c0,0.19 -0.07,0.34 -0.2,0.45 -0.13,0.11 -0.31,0.16 -0.52,0.16 -0.21,0 -0.38,-0.05 -0.52,-0.16 -0.13,-0.11 -0.19,-0.26 -0.19,-0.45l0 -1.12 0.36 0 0 1.12c0,0.11 0.03,0.2 0.09,0.26 0.06,0.06 0.15,0.09 0.26,0.09 0.11,0 0.2,-0.03 0.26,-0.09 0.07,-0.06 0.1,-0.15 0.1,-0.26l0 -1.12 0.36 0zm0.67 1.44l0.8 0 0 0.27 -1.16 0 0 -1.71 0.36 0 0 1.44zm2 -0.1l-0.58 0 -0.12 0.37 -0.38 0 0.61 -1.71 0.36 0 0.61 1.71 -0.38 0 -0.12 -0.37zm-0.49 -0.27l0.4 0 -0.2 -0.6 0 0 -0.2 0.6zm1.52 -0.05l0 0.69 -0.36 0 0 -1.71 0.62 0c0.2,0 0.36,0.04 0.48,0.13 0.11,0.09 0.17,0.22 0.17,0.37 0,0.09 -0.02,0.17 -0.07,0.23 -0.05,0.06 -0.12,0.11 -0.22,0.15 0.11,0.03 0.18,0.08 0.23,0.15 0.05,0.07 0.07,0.16 0.07,0.26l0 0.13c0,0.04 0.01,0.09 0.02,0.15 0.01,0.05 0.04,0.09 0.07,0.11l0 0.03 -0.37 0c-0.03,-0.03 -0.05,-0.07 -0.06,-0.13 -0.01,-0.06 -0.02,-0.11 -0.02,-0.17l0 -0.12c0,-0.08 -0.02,-0.15 -0.07,-0.2 -0.05,-0.04 -0.12,-0.07 -0.21,-0.07l-0.28 0zm0 -0.26l0.25 0c0.1,0 0.18,-0.02 0.23,-0.06 0.05,-0.04 0.07,-0.1 0.07,-0.18 0,-0.08 -0.02,-0.14 -0.07,-0.19 -0.05,-0.04 -0.13,-0.07 -0.22,-0.07l-0.26 0 0 0.5z"/>
   <polygon class="fil4" points="64.79,96.62 96.09,96.62 96.09,97.11 64.79,97.11 "/>
  </g>
 </g>
</svg>
