<?xml version="1.0" encoding="UTF-8"?>
<!DOCTYPE svg PUBLIC "-//W3C//DTD SVG 1.1//EN" "http://www.w3.org/Graphics/SVG/1.1/DTD/svg11.dtd">
<!-- Creator: CorelDRAW 2020 (64 Bit) -->
<svg xmlns="http://www.w3.org/2000/svg" xml:space="preserve" width="160px" height="160px" version="1.1" style="shape-rendering:geometricPrecision; text-rendering:geometricPrecision; image-rendering:optimizeQuality; fill-rule:evenodd; clip-rule:evenodd"
viewBox="0 0 160 160"
 xmlns:xlink="http://www.w3.org/1999/xlink"
 xmlns:xodm="http://www.corel.com/coreldraw/odm/2003">
 <defs>
  <style type="text/css">
   <![CDATA[
    .str0 {stroke:#006346;stroke-width:2.36;stroke-miterlimit:22.9256}
    .fil1 {fill:#FEFEFE}
    .fil0 {fill:#006346}
    .fil4 {fill:#FFCC13}
    .fil2 {fill:#FEFEFE;fill-rule:nonzero}
    .fil3 {fill:#FFCC29;fill-rule:nonzero}
   ]]>
  </style>
 </defs>
 <g id="Camada_x0020_1">
  <metadata id="CorelCorpID_0Corel-Layer"/>
  <g id="_1742040780256">
   <circle class="fil0 str0" cx="80" cy="80" r="75.5"/>
   <path class="fil1" d="M60.12 26.97c-14.65,0 -26.35,9.54 -29.69,21.89 0.8,7.78 1.56,15.6 2.37,24.15l0 0 0 40.79 14.24 0 0 -27.46c3.98,1.85 8.41,2.88 13.08,2.88 17.19,0 31.12,-13.93 31.12,-31.12 0,-17.19 -13.93,-31.13 -31.12,-31.13z"/>
   <path class="fil0" d="M32.44 72.78l14.45 -0.16 0.11 0.8 15.26 0.08c4.34,-3.53 16.22,4.12 16.53,-5.42l0 -10.55c-0.89,-3.31 -2.97,-5.01 -4.71,-7 0.63,-0.75 2.42,-0.03 2.81,-0.66 -1.02,-3.47 -3.2,-2.82 -5.66,-1.33 -1.94,-4.96 -4.63,-9.62 -7.63,-10.35l-27.76 0c-2.49,3.29 -4.17,5.7 -5.74,10.47l2.34 24.12z"/>
   <path class="fil2" d="M50.03 112.09l0 -18.61 2.83 0 0 2.85c0.73,-1.32 1.4,-2.19 2.01,-2.61 0.62,-0.42 1.29,-0.63 2.03,-0.63 1.06,0 2.14,0.33 3.24,0.99l-1.12 2.91c-0.77,-0.42 -1.53,-0.64 -2.3,-0.64 -0.68,0 -1.3,0.21 -1.84,0.62 -0.55,0.41 -0.94,0.99 -1.17,1.72 -0.35,1.12 -0.52,2.35 -0.52,3.68l0 9.72 -3.16 0zm10.79 -9.3c0,-3.44 0.96,-5.99 2.88,-7.64 1.59,-1.38 3.55,-2.06 5.85,-2.06 2.55,0 4.64,0.83 6.27,2.51 1.62,1.66 2.43,3.98 2.43,6.92 0,2.39 -0.36,4.27 -1.07,5.64 -0.72,1.37 -1.77,2.43 -3.14,3.19 -1.37,0.76 -2.87,1.14 -4.49,1.14 -2.61,0 -4.71,-0.83 -6.32,-2.5 -1.6,-1.67 -2.41,-4.07 -2.41,-7.2zm3.23 0c0,2.38 0.52,4.16 1.56,5.34 1.05,1.18 2.36,1.77 3.94,1.77 1.57,0 2.87,-0.59 3.91,-1.78 1.04,-1.19 1.57,-3 1.57,-5.43 0,-2.29 -0.53,-4.03 -1.58,-5.21 -1.04,-1.18 -2.35,-1.78 -3.9,-1.78 -1.58,0 -2.89,0.59 -3.94,1.77 -1.04,1.17 -1.56,2.95 -1.56,5.32zm30.06 2.49l3.08 0.43c-0.34,2.12 -1.2,3.78 -2.59,4.98 -1.39,1.2 -3.11,1.8 -5.14,1.8 -2.54,0 -4.58,-0.83 -6.12,-2.5 -1.55,-1.66 -2.32,-4.04 -2.32,-7.13 0,-2.01 0.33,-3.76 1,-5.27 0.66,-1.5 1.67,-2.63 3.03,-3.37 1.36,-0.76 2.84,-1.13 4.44,-1.13 2.01,0 3.67,0.5 4.95,1.53 1.28,1.02 2.11,2.47 2.47,4.35l-3.05 0.46c-0.29,-1.25 -0.81,-2.18 -1.56,-2.82 -0.74,-0.62 -1.63,-0.94 -2.69,-0.94 -1.59,0 -2.88,0.57 -3.88,1.7 -0.99,1.14 -1.48,2.94 -1.48,5.4 0,2.5 0.47,4.31 1.43,5.44 0.96,1.13 2.21,1.69 3.75,1.69 1.24,0 2.28,-0.37 3.1,-1.13 0.83,-0.75 1.36,-1.92 1.58,-3.49zm17.93 4.48c-1.17,1 -2.3,1.7 -3.38,2.11 -1.09,0.41 -2.25,0.62 -3.49,0.62 -2.04,0 -3.61,-0.5 -4.71,-1.5 -1.1,-0.99 -1.65,-2.26 -1.65,-3.81 0,-0.91 0.2,-1.74 0.62,-2.49 0.42,-0.76 0.96,-1.35 1.63,-1.81 0.67,-0.45 1.43,-0.8 2.27,-1.03 0.62,-0.16 1.56,-0.32 2.81,-0.47 2.55,-0.3 4.43,-0.67 5.63,-1.09 0.01,-0.43 0.02,-0.7 0.02,-0.81 0,-1.28 -0.3,-2.19 -0.9,-2.71 -0.81,-0.71 -2.01,-1.07 -3.6,-1.07 -1.49,0 -2.58,0.27 -3.29,0.79 -0.71,0.52 -1.23,1.44 -1.57,2.76l-3.09 -0.43c0.29,-1.32 0.75,-2.39 1.39,-3.2 0.65,-0.81 1.58,-1.43 2.8,-1.88 1.21,-0.43 2.63,-0.65 4.23,-0.65 1.59,0 2.89,0.18 3.88,0.56 1,0.37 1.73,0.84 2.2,1.41 0.46,0.57 0.79,1.28 0.98,2.15 0.11,0.54 0.16,1.51 0.16,2.9l0 4.18c0,2.93 0.06,4.77 0.2,5.55 0.12,0.79 0.38,1.53 0.77,2.25l-3.3 0c-0.32,-0.66 -0.52,-1.44 -0.61,-2.33zm-0.25 -6.99c-1.15,0.46 -2.87,0.86 -5.17,1.18 -1.3,0.19 -2.22,0.4 -2.76,0.63 -0.54,0.23 -0.95,0.57 -1.24,1.02 -0.29,0.44 -0.44,0.94 -0.44,1.49 0,0.83 0.31,1.53 0.95,2.09 0.64,0.55 1.58,0.83 2.8,0.83 1.21,0 2.3,-0.26 3.25,-0.79 0.94,-0.53 1.64,-1.25 2.08,-2.17 0.34,-0.71 0.51,-1.75 0.51,-3.13l0.02 -1.15zm8 9.32l0 -18.61 2.83 0 0 2.85c0.73,-1.32 1.4,-2.19 2.01,-2.61 0.62,-0.42 1.29,-0.63 2.03,-0.63 1.06,0 2.14,0.33 3.24,0.99l-1.12 2.91c-0.77,-0.42 -1.53,-0.64 -2.3,-0.64 -0.68,0 -1.3,0.21 -1.84,0.62 -0.55,0.41 -0.94,0.99 -1.17,1.72 -0.35,1.12 -0.52,2.35 -0.52,3.68l0 9.72 -3.16 0z"/>
   <path class="fil3" d="M34.23 128.71l0 -11.32 7.34 0c1.49,0 2.69,0.11 3.6,0.35 0.9,0.22 1.6,0.58 2.11,1.05 0.52,0.48 0.77,0.98 0.77,1.5 0,0.48 -0.23,0.94 -0.68,1.36 -0.45,0.43 -1.13,0.77 -2.04,1.04 1.18,0.2 2.09,0.54 2.72,1.03 0.64,0.48 0.96,1.05 0.96,1.71 0,0.53 -0.2,1.02 -0.58,1.48 -0.39,0.45 -0.87,0.81 -1.44,1.05 -0.57,0.25 -1.28,0.44 -2.14,0.56 -0.86,0.13 -1.91,0.19 -3.16,0.19l-7.46 0zm2.6 -6.56l4.23 0c1.14,0 1.97,-0.04 2.46,-0.13 0.66,-0.11 1.16,-0.3 1.49,-0.57 0.33,-0.26 0.5,-0.59 0.5,-0.99 0,-0.38 -0.15,-0.71 -0.47,-0.99 -0.31,-0.29 -0.75,-0.49 -1.33,-0.59 -0.58,-0.11 -1.57,-0.16 -2.97,-0.16l-3.91 0 0 3.43zm0 5.23l4.87 0c0.84,0 1.42,-0.02 1.76,-0.05 0.6,-0.06 1.1,-0.16 1.5,-0.31 0.4,-0.15 0.73,-0.36 0.99,-0.63 0.25,-0.28 0.38,-0.6 0.38,-0.96 0,-0.42 -0.18,-0.79 -0.56,-1.1 -0.38,-0.32 -0.89,-0.54 -1.56,-0.66 -0.66,-0.13 -1.62,-0.19 -2.86,-0.19l-4.52 0 0 3.9zm15.78 1.33l0 -11.32 8.67 0c1.75,0 3.07,0.1 3.98,0.31 0.91,0.2 1.63,0.56 2.17,1.07 0.54,0.52 0.81,1.09 0.81,1.71 0,0.8 -0.45,1.48 -1.35,2.03 -0.89,0.55 -2.28,0.9 -4.15,1.05 0.68,0.19 1.2,0.38 1.56,0.56 0.75,0.4 1.47,0.91 2.14,1.51l3.38 3.08 -3.23 0 -2.59 -2.35c-0.75,-0.69 -1.37,-1.21 -1.86,-1.57 -0.49,-0.36 -0.93,-0.61 -1.32,-0.75 -0.38,-0.15 -0.77,-0.25 -1.18,-0.3 -0.29,-0.04 -0.76,-0.06 -1.43,-0.06l-3 0 0 5.03 -2.6 0zm2.6 -6.32l5.56 0c1.18,0 2.1,-0.07 2.76,-0.22 0.67,-0.14 1.17,-0.36 1.51,-0.68 0.35,-0.31 0.52,-0.64 0.52,-1.01 0,-0.53 -0.33,-0.98 -1,-1.32 -0.67,-0.35 -1.72,-0.52 -3.17,-0.52l-6.18 0 0 3.75zm14.93 6.32l7.51 -11.32 2.84 0 7.97 11.32 -2.95 0 -2.26 -3.43 -8.24 0 -2.12 3.43 -2.75 0zm5.63 -4.65l6.67 0 -2.04 -3.13c-0.62,-0.96 -1.08,-1.75 -1.4,-2.37 -0.27,0.74 -0.63,1.46 -1.08,2.18l-2.15 3.32zm13.89 1.02l2.44 -0.13c0.11,0.57 0.38,1.03 0.8,1.4 0.42,0.36 1.08,0.66 1.97,0.89 0.89,0.22 1.89,0.33 3,0.33 0.99,0 1.86,-0.08 2.61,-0.25 0.76,-0.17 1.32,-0.41 1.69,-0.71 0.36,-0.29 0.55,-0.62 0.55,-0.96 0,-0.36 -0.18,-0.67 -0.53,-0.93 -0.36,-0.27 -0.94,-0.49 -1.76,-0.67 -0.53,-0.12 -1.69,-0.3 -3.49,-0.55 -1.79,-0.25 -3.05,-0.49 -3.77,-0.71 -0.93,-0.28 -1.63,-0.63 -2.08,-1.05 -0.46,-0.42 -0.69,-0.89 -0.69,-1.41 0,-0.58 0.28,-1.11 0.84,-1.61 0.56,-0.49 1.38,-0.87 2.46,-1.13 1.07,-0.26 2.27,-0.39 3.59,-0.39 1.44,0 2.72,0.14 3.83,0.41 1.1,0.27 1.96,0.66 2.55,1.19 0.6,0.53 0.92,1.12 0.96,1.79l-2.48 0.11c-0.13,-0.72 -0.59,-1.26 -1.35,-1.62 -0.77,-0.37 -1.91,-0.55 -3.42,-0.55 -1.56,0 -2.7,0.17 -3.42,0.5 -0.71,0.33 -1.07,0.73 -1.07,1.2 0,0.41 0.25,0.74 0.76,1 0.5,0.26 1.8,0.54 3.9,0.81 2.1,0.28 3.55,0.52 4.33,0.72 1.13,0.31 1.97,0.69 2.52,1.15 0.54,0.47 0.81,1 0.81,1.61 0,0.6 -0.3,1.17 -0.89,1.7 -0.6,0.53 -1.45,0.94 -2.57,1.24 -1.11,0.29 -2.37,0.44 -3.76,0.44 -1.77,0 -3.25,-0.15 -4.44,-0.45 -1.2,-0.29 -2.13,-0.74 -2.81,-1.34 -0.69,-0.6 -1.04,-1.28 -1.08,-2.03zm19.51 3.63l0 -11.32 2.59 0 0 11.32 -2.59 0zm7.04 0l0 -11.32 2.6 0 0 9.99 9.61 0 0 1.33 -12.21 0z"/>
   <path class="fil1" d="M36.2 66.01l22.81 0c0.36,1.33 -0.35,3 -1.66,3.32l-19.26 0c-1.54,-0.17 -2.17,-2.07 -1.89,-3.32z"/>
   <path class="fil1" d="M69.29 62.49l2.43 -0.02c1.64,-0.01 4.03,-0.54 4.03,-2.62l0 -3.55c0,-1.33 -1.09,-2.42 -2.42,-2.42l-1.59 0c-1.33,0 -2.41,1.09 -2.42,2.42l-0.03 6.19z"/>
   <path class="fil1" d="M74.61 66.8l-5.82 0c-1.35,0 -2.27,0.4 -2.03,1.65 0.23,1.18 3.65,2.81 4.94,2.81l2.91 0c1.17,0 2.12,-0.96 2.12,-2.12l0 -0.23c0,-1.16 -0.95,-2.11 -2.12,-2.11z"/>
   <path class="fil1" d="M30.57 49.08l39.59 0c-0.42,-4 -3.65,-9.67 -7.22,-9.67 -8.9,0 -17.08,0 -25.98,0 -3.29,-0.21 -5.56,6.22 -6.39,9.67z"/>
   <path class="fil2" d="M44.99 138.28l0 1.87 -1.09 0 0 -5.16 2.07 0c0.62,0 1.11,0.15 1.47,0.46 0.35,0.3 0.53,0.7 0.53,1.19 0,0.49 -0.18,0.89 -0.53,1.19 -0.36,0.3 -0.85,0.45 -1.47,0.45l-0.98 0zm0 -0.8l0.98 0c0.3,0 0.53,-0.08 0.69,-0.23 0.15,-0.16 0.23,-0.36 0.23,-0.6 0,-0.25 -0.08,-0.46 -0.23,-0.62 -0.16,-0.16 -0.38,-0.24 -0.69,-0.24l-0.98 0 0 1.69zm4.84 0.61l0 2.06 -1.08 0 0 -5.16 1.87 0c0.62,0 1.1,0.14 1.45,0.41 0.35,0.26 0.52,0.64 0.52,1.11 0,0.27 -0.07,0.5 -0.22,0.69 -0.15,0.19 -0.36,0.35 -0.65,0.47 0.32,0.08 0.55,0.24 0.69,0.44 0.14,0.21 0.21,0.47 0.21,0.78l0 0.38c0,0.14 0.02,0.3 0.07,0.45 0.04,0.16 0.11,0.28 0.2,0.35l0 0.08 -1.11 0c-0.1,-0.08 -0.17,-0.21 -0.2,-0.38 -0.02,-0.17 -0.04,-0.34 -0.04,-0.5l0 -0.37c0,-0.26 -0.07,-0.46 -0.22,-0.6 -0.15,-0.14 -0.35,-0.21 -0.62,-0.21l-0.87 0zm0 -0.8l0.77 0c0.31,0 0.53,-0.06 0.68,-0.18 0.15,-0.13 0.22,-0.31 0.22,-0.55 0,-0.23 -0.07,-0.42 -0.22,-0.56 -0.15,-0.14 -0.37,-0.21 -0.66,-0.21l-0.79 0 0 1.5zm8.14 0.74c0,0.64 -0.21,1.16 -0.62,1.57 -0.42,0.41 -0.97,0.62 -1.64,0.62 -0.67,0 -1.21,-0.21 -1.63,-0.62 -0.41,-0.41 -0.62,-0.94 -0.62,-1.57l0 -0.92c0,-0.63 0.21,-1.16 0.62,-1.57 0.42,-0.41 0.96,-0.62 1.62,-0.62 0.67,0 1.22,0.21 1.64,0.62 0.42,0.41 0.63,0.94 0.63,1.57l0 0.92zm-1.08 -0.93c0,-0.4 -0.1,-0.73 -0.31,-0.99 -0.22,-0.26 -0.51,-0.38 -0.88,-0.38 -0.36,0 -0.65,0.12 -0.85,0.38 -0.21,0.26 -0.31,0.59 -0.31,0.99l0 0.93c0,0.41 0.1,0.74 0.31,1 0.2,0.26 0.49,0.39 0.86,0.39 0.37,0 0.66,-0.13 0.87,-0.39 0.21,-0.26 0.31,-0.59 0.31,-1l0 -0.93zm5.61 -1.31l-1.54 0 0 4.36 -1.09 0 0 -4.36 -1.52 0 0 -0.8 4.15 0 0 0.8zm3.69 2.09l-2.01 0 0 1.47 2.38 0 0 0.8 -3.46 0 0 -5.16 3.46 0 0 0.8 -2.38 0 0 1.3 2.01 0 0 0.79zm5.19 0.56l0.01 0.02c0.01,0.55 -0.17,0.98 -0.53,1.29 -0.36,0.31 -0.86,0.47 -1.49,0.47 -0.65,0 -1.18,-0.2 -1.58,-0.6 -0.39,-0.39 -0.59,-0.91 -0.59,-1.54l0 -1.02c0,-0.63 0.19,-1.14 0.58,-1.54 0.39,-0.4 0.9,-0.6 1.53,-0.6 0.66,0 1.17,0.15 1.55,0.46 0.37,0.31 0.55,0.74 0.54,1.29l-0.01 0.03 -1.05 0c0,-0.33 -0.09,-0.58 -0.26,-0.74 -0.16,-0.16 -0.42,-0.24 -0.77,-0.24 -0.32,0 -0.58,0.12 -0.76,0.37 -0.18,0.25 -0.27,0.57 -0.27,0.96l0 1.03c0,0.4 0.09,0.72 0.29,0.97 0.19,0.25 0.45,0.38 0.8,0.38 0.32,0 0.56,-0.08 0.72,-0.24 0.16,-0.17 0.24,-0.42 0.24,-0.75l1.05 0zm-1.66 1.69l-0.04 0.2c0.16,0.03 0.29,0.09 0.4,0.19 0.11,0.09 0.16,0.24 0.16,0.43 0,0.25 -0.11,0.45 -0.34,0.6 -0.23,0.15 -0.55,0.23 -0.96,0.23l-0.03 -0.57c0.13,0 0.23,-0.03 0.3,-0.08 0.07,-0.04 0.11,-0.12 0.11,-0.22 0,-0.09 -0.04,-0.16 -0.12,-0.2 -0.08,-0.04 -0.21,-0.06 -0.41,-0.08l0.12 -0.5 0.81 0zm5.27 -1.1l-1.76 0 -0.36 1.12 -1.13 0 1.82 -5.16 1.11 0 1.82 5.16 -1.14 0 -0.36 -1.12zm-1.49 -0.81l1.22 0 -0.59 -1.81 -0.03 0 -0.6 1.81zm1.99 -4.64c0,0.22 -0.08,0.42 -0.22,0.57 -0.15,0.16 -0.34,0.24 -0.56,0.24 -0.18,0 -0.37,-0.05 -0.59,-0.15 -0.22,-0.1 -0.4,-0.15 -0.52,-0.15 -0.09,0 -0.17,0.03 -0.23,0.11 -0.06,0.08 -0.09,0.17 -0.09,0.27l-0.58 -0.14c0,-0.23 0.08,-0.42 0.23,-0.58 0.14,-0.17 0.33,-0.25 0.55,-0.25 0.14,0 0.33,0.05 0.56,0.16 0.24,0.1 0.43,0.15 0.56,0.15 0.08,0 0.15,-0.04 0.22,-0.11 0.06,-0.08 0.1,-0.17 0.1,-0.28l0.57 0.16zm5.85 4.45c0,0.64 -0.21,1.16 -0.63,1.57 -0.41,0.41 -0.96,0.62 -1.63,0.62 -0.67,0 -1.21,-0.21 -1.63,-0.62 -0.41,-0.41 -0.62,-0.94 -0.62,-1.57l0 -0.92c0,-0.63 0.21,-1.16 0.62,-1.57 0.42,-0.41 0.96,-0.62 1.62,-0.62 0.67,0 1.22,0.21 1.64,0.62 0.42,0.41 0.63,0.94 0.63,1.57l0 0.92zm-1.08 -0.93c0,-0.4 -0.1,-0.73 -0.32,-0.99 -0.21,-0.26 -0.5,-0.38 -0.87,-0.38 -0.36,0 -0.65,0.12 -0.85,0.38 -0.21,0.26 -0.31,0.59 -0.31,0.99l0 0.93c0,0.41 0.1,0.74 0.31,1 0.2,0.26 0.49,0.39 0.86,0.39 0.37,0 0.66,-0.13 0.87,-0.39 0.21,-0.26 0.31,-0.59 0.31,-1l0 -0.93zm5.68 1.65l0.06 0.28 0.03 0 0.06 -0.27 1.18 -3.77 1.14 0 -1.84 5.16 -1.11 0 -1.84 -5.16 1.15 0 1.17 3.76zm6.09 -0.87l-2.01 0 0 1.47 2.38 0 0 0.8 -3.46 0 0 -5.16 3.46 0 0 0.8 -2.38 0 0 1.3 2.01 0 0 0.79zm2.3 2.27l-1.09 0 0 -5.16 1.09 0 0 5.16zm5.13 -1.71l0 0.02c0.01,0.55 -0.16,0.98 -0.52,1.29 -0.37,0.31 -0.86,0.47 -1.5,0.47 -0.65,0 -1.17,-0.2 -1.57,-0.6 -0.4,-0.39 -0.6,-0.91 -0.6,-1.54l0 -1.02c0,-0.63 0.19,-1.14 0.58,-1.54 0.39,-0.4 0.9,-0.6 1.53,-0.6 0.66,0 1.18,0.15 1.55,0.46 0.37,0.31 0.55,0.74 0.54,1.29l-0.01 0.03 -1.05 0c0,-0.33 -0.09,-0.58 -0.25,-0.74 -0.17,-0.16 -0.43,-0.24 -0.78,-0.24 -0.32,0 -0.58,0.12 -0.76,0.37 -0.18,0.25 -0.27,0.57 -0.27,0.96l0 1.03c0,0.4 0.1,0.72 0.29,0.97 0.19,0.25 0.46,0.38 0.8,0.38 0.32,0 0.57,-0.08 0.73,-0.24 0.15,-0.17 0.24,-0.42 0.24,-0.75l1.05 0zm5.07 -3.45l0 3.38c0,0.58 -0.21,1.03 -0.61,1.36 -0.4,0.33 -0.93,0.49 -1.57,0.49 -0.64,0 -1.16,-0.16 -1.56,-0.49 -0.4,-0.33 -0.6,-0.78 -0.6,-1.36l0 -3.38 1.09 0 0 3.38c0,0.34 0.09,0.6 0.28,0.79 0.2,0.18 0.46,0.27 0.79,0.27 0.33,0 0.6,-0.09 0.79,-0.27 0.2,-0.19 0.3,-0.45 0.3,-0.79l0 -3.38 1.09 0zm2.02 4.36l2.42 0 0 0.8 -3.5 0 0 -5.16 1.08 0 0 4.36zm6.03 -0.32l-1.75 0 -0.36 1.12 -1.14 0 1.83 -5.16 1.11 0 1.81 5.16 -1.13 0 -0.37 -1.12zm-1.48 -0.81l1.22 0 -0.6 -1.81 -0.02 0 -0.6 1.81zm4.59 -0.13l0 2.06 -1.08 0 0 -5.16 1.87 0c0.61,0 1.1,0.14 1.44,0.41 0.35,0.26 0.53,0.64 0.53,1.11 0,0.27 -0.08,0.5 -0.22,0.69 -0.15,0.19 -0.37,0.35 -0.65,0.47 0.32,0.08 0.55,0.24 0.69,0.44 0.14,0.21 0.21,0.47 0.21,0.78l0 0.38c0,0.14 0.02,0.3 0.06,0.45 0.04,0.16 0.11,0.28 0.21,0.35l0 0.08 -1.12 0c-0.1,-0.08 -0.16,-0.21 -0.19,-0.38 -0.03,-0.17 -0.04,-0.34 -0.04,-0.5l0 -0.37c0,-0.26 -0.07,-0.46 -0.22,-0.6 -0.15,-0.14 -0.36,-0.21 -0.63,-0.21l-0.86 0zm0 -0.8l0.77 0c0.3,0 0.53,-0.06 0.68,-0.18 0.15,-0.13 0.22,-0.31 0.22,-0.55 0,-0.23 -0.07,-0.42 -0.22,-0.56 -0.15,-0.14 -0.37,-0.21 -0.66,-0.21l-0.79 0 0 1.5z"/>
   <polygon class="fil4" points="34.06,130.19 128.59,130.19 128.59,131.68 34.06,131.68 "/>
  </g>
 </g>
</svg>
