<?xml version="1.0" encoding="UTF-8"?>
<!DOCTYPE svg PUBLIC "-//W3C//DTD SVG 1.1//EN" "http://www.w3.org/Graphics/SVG/1.1/DTD/svg11.dtd">
<!-- Creator: CorelDRAW 2020 (64 Bit) -->
<svg xmlns="http://www.w3.org/2000/svg" xml:space="preserve" width="91.44mm" height="33.8666mm" version="1.1" style="shape-rendering:geometricPrecision; text-rendering:geometricPrecision; image-rendering:optimizeQuality; fill-rule:evenodd; clip-rule:evenodd"
viewBox="0 0 9144 3386.66"
 xmlns:xlink="http://www.w3.org/1999/xlink"
 xmlns:xodm="http://www.corel.com/coreldraw/odm/2003">
 <defs>
  <style type="text/css">
   <![CDATA[
    .fil2 {fill:#FEFEFE}
    .fil3 {fill:#006346}
    .fil0 {fill:#FFCC13}
    .fil1 {fill:#FEFEFE;fill-rule:nonzero}
    .fil4 {fill:#FFCC29;fill-rule:nonzero}
   ]]>
  </style>
 </defs>
 <g id="Camada_x0020_1">
  <metadata id="CorelCorpID_0Corel-Layer"/>
  <g id="_2282296854400">
   <polygon class="fil0" points="338.67,2558.23 8805.34,2558.23 8805.34,2623.8 338.67,2623.8 "/>
   <path class="fil1" d="M4333.71 3017.78l0 113.26 -65.72 0 0 -312.32 125.37 0c37.74,0 67.34,9.16 89.01,27.46 21.6,18.3 32.44,42.39 32.44,72.33 0,29.87 -10.84,53.88 -32.44,72.04 -21.67,18.15 -51.27,27.23 -89.01,27.23l-59.65 0zm0 -48.24l59.65 0c18.37,0 32.21,-4.76 41.66,-14.28 9.46,-9.52 14.22,-21.59 14.22,-36.31 0,-15.08 -4.69,-27.46 -14.07,-37.27 -9.37,-9.81 -23.29,-14.64 -41.81,-14.64l-59.65 0 0 102.5zm293.87 36.67l0 124.83 -65.72 0 0 -312.32 113.45 0c37.44,0 66.65,8.13 87.71,24.38 21.13,16.25 31.67,38.87 31.67,67.87 0,16.03 -4.46,29.87 -13.38,41.51 -8.99,11.64 -21.98,21.08 -39.12,28.18 19.37,5.42 33.28,14.57 41.81,27.23 8.46,12.75 12.69,28.49 12.69,47.23l0 22.92c0,8.7 1.23,17.86 3.76,27.38 2.46,9.51 6.69,16.54 12.69,21.08l0 4.54 -67.8 0c-6,-4.62 -9.84,-12.16 -11.61,-22.77 -1.69,-10.55 -2.53,-20.8 -2.53,-30.6l0 -22.12c0,-15.59 -4.46,-27.74 -13.46,-36.38 -8.92,-8.64 -21.52,-12.96 -37.89,-12.96l-52.27 0zm0 -48.24l46.58 0c18.52,0 32.21,-3.74 41.27,-11.21 9,-7.39 13.46,-18.44 13.46,-33.01 0,-14.28 -4.54,-25.62 -13.61,-34.11 -9.07,-8.43 -22.36,-12.6 -39.97,-12.6l-47.73 0 0 90.93zm493.41 45.02c0,38.43 -12.68,70.13 -38.05,95.1 -25.36,24.96 -58.42,37.41 -99.08,37.49 -40.59,-0.08 -73.48,-12.53 -98.7,-37.56 -25.21,-25.03 -37.82,-56.74 -37.82,-95.03l0 -56.23c0,-38.14 12.61,-69.76 37.75,-94.87 25.13,-25.12 57.88,-37.63 98.31,-37.63 40.66,0 73.79,12.51 99.31,37.63 25.52,25.11 38.28,56.73 38.28,94.87l0 56.23zm-65.56 -56.59c0,-24.38 -6.39,-44.3 -19.15,-59.89 -12.76,-15.59 -30.36,-23.35 -52.88,-23.35 -22.22,0 -39.51,7.76 -51.97,23.35 -12.37,15.59 -18.52,35.51 -18.52,59.89l0 56.59c0,24.75 6.23,44.88 18.68,60.47 12.46,15.59 29.9,23.36 52.27,23.36 22.52,0 40.05,-7.77 52.65,-23.36 12.61,-15.59 18.92,-35.72 18.92,-60.47l0 -56.59zm340.06 -79.36l-93.7 0 0 264 -65.73 0 0 -264 -92.31 0 0 -48.32 251.74 0 0 48.32zm223.38 126.72l-121.61 0 0 89.25 144.59 0 0 48.03 -210.31 0 0 -312.32 209.85 0 0 48.32 -144.13 0 0 78.48 121.61 0 0 48.24zm315.08 33.9l0.46 1.25c0.54,33.38 -10.07,59.45 -31.98,78.33 -21.98,18.89 -52.19,28.26 -90.78,28.34 -39.36,-0.08 -71.1,-12.08 -95.24,-36.17 -24.21,-24.09 -36.28,-55.27 -36.28,-93.41l0 -62.02c0,-38 11.76,-69.18 35.36,-93.41 23.6,-24.24 54.5,-36.31 92.78,-36.31 39.97,0 71.18,9.29 93.7,27.89 22.52,18.6 33.44,44.73 32.9,78.48l-0.46 1.32 -63.96 0c0,-20.06 -5.07,-34.99 -15.22,-44.73 -10.15,-9.82 -25.82,-14.71 -46.96,-14.71 -19.68,0 -35.05,7.53 -46.05,22.61 -11.07,15.09 -16.52,34.56 -16.52,58.43l0 62.45c0,24.01 5.76,43.63 17.44,58.79 11.62,15.14 27.76,22.68 48.51,22.68 19.68,0 34.36,-4.9 44.05,-14.63 9.68,-9.81 14.52,-24.9 14.52,-45.18l63.73 0zm-100.62 102.5l-2.54 12.22c9.61,1.62 17.68,5.35 24.13,11.2 6.46,5.87 9.69,14.5 9.69,25.92 0,15.3 -6.84,27.53 -20.6,36.68 -13.76,9.15 -33.2,13.76 -58.42,13.76l-1.61 -34.55c7.68,0 13.76,-1.47 18.22,-4.4 4.53,-2.92 6.76,-7.39 6.76,-13.39 0,-5.86 -2.38,-9.95 -7.23,-12.37 -4.76,-2.35 -12.99,-3.89 -24.74,-4.62l6.99 -30.45 49.35 0zm319 -66.48l-106.31 0 -22.06 67.36 -68.65 0 110.54 -312.32 67.34 0 110.15 312.32 -68.72 0 -22.29 -67.36zm-90.09 -49.12l74.1 0 -36.2 -110.04 -1.39 0 -36.51 110.04zm120.45 -281.79c0,13.76 -4.46,25.48 -13.38,35.07 -8.99,9.66 -20.29,14.5 -33.89,14.5 -10.54,0 -22.45,-3.08 -35.75,-9.31 -13.22,-6.22 -23.83,-9.36 -31.59,-9.36 -5.46,0 -9.92,2.34 -13.53,6.95 -3.61,4.68 -5.38,10.25 -5.38,16.62l-35.13 -9.01c0,-13.39 4.46,-25.11 13.37,-35.06 8.92,-9.89 20.15,-14.86 33.68,-14.86 8.38,0 19.82,3.08 34.2,9.29 14.45,6.22 25.52,9.37 33.36,9.37 5.08,0 9.61,-2.33 13.53,-6.88 3.85,-4.61 5.84,-10.25 5.84,-16.91l34.67 9.59zm354.98 270.22c0,38.43 -12.69,70.13 -38.05,95.1 -25.37,24.96 -58.43,37.41 -99.09,37.49 -40.58,-0.08 -73.48,-12.53 -98.69,-37.56 -25.22,-25.03 -37.82,-56.74 -37.82,-95.03l0 -56.23c0,-38.14 12.6,-69.76 37.74,-94.87 25.13,-25.12 57.88,-37.63 98.31,-37.63 40.67,0 73.79,12.51 99.31,37.63 25.53,25.11 38.29,56.73 38.29,94.87l0 56.23zm-65.57 -56.59c0,-24.38 -6.38,-44.3 -19.14,-59.89 -12.77,-15.59 -30.37,-23.35 -52.89,-23.35 -22.22,0 -39.51,7.76 -51.96,23.35 -12.38,15.59 -18.52,35.51 -18.52,59.89l0 56.59c0,24.75 6.22,44.88 18.67,60.47 12.46,15.59 29.9,23.36 52.27,23.36 22.53,0 40.05,-7.77 52.66,-23.36 12.61,-15.59 18.91,-35.72 18.91,-60.47l0 -56.59zm344.14 99.93l3.99 17.13 1.39 0 3.84 -16.47 71.41 -228.27 69.33 0 -111.45 312.32 -67.57 0 -111.23 -312.32 69.34 0 70.95 227.61zm369.04 -52.57l-121.61 0 0 89.25 144.59 0 0 48.03 -210.31 0 0 -312.32 209.85 0 0 48.32 -144.13 0 0 78.48 121.61 0 0 48.24zm139.44 137.28l-65.81 0 0 -312.32 65.81 0 0 312.32zm311 -103.38l0.46 1.25c0.54,33.38 -10.07,59.45 -31.98,78.33 -21.98,18.89 -52.19,28.26 -90.78,28.34 -39.36,-0.08 -71.1,-12.08 -95.24,-36.17 -24.21,-24.09 -36.27,-55.27 -36.27,-93.41l0 -62.02c0,-38 11.75,-69.18 35.35,-93.41 23.6,-24.24 54.5,-36.31 92.78,-36.31 39.98,0 71.18,9.29 93.7,27.89 22.53,18.6 33.44,44.73 32.9,78.48l-0.46 1.32 -63.95 0c0,-20.06 -5.08,-34.99 -15.22,-44.73 -10.15,-9.82 -25.83,-14.71 -46.97,-14.71 -19.68,0 -35.05,7.53 -46.04,22.61 -11.07,15.09 -16.53,34.56 -16.53,58.43l0 62.45c0,24.01 5.76,43.63 17.45,58.79 11.61,15.14 27.75,22.68 48.5,22.68 19.68,0 34.37,-4.9 44.05,-14.63 9.68,-9.81 14.53,-24.9 14.53,-45.18l63.72 0zm307.32 -208.94l0 204.41c0,35.21 -12.23,62.74 -36.67,82.57 -24.44,19.92 -56.19,29.8 -95.24,29.88 -38.9,-0.08 -70.49,-9.96 -94.7,-29.88 -24.29,-19.83 -36.36,-47.36 -36.36,-82.57l0 -204.41 65.95 0 0 204.41c0,20.93 5.85,36.82 17.53,47.87 11.76,10.99 27.6,16.47 47.58,16.47 20.22,0 36.28,-5.48 48.2,-16.47 11.84,-11.05 17.75,-26.94 17.75,-47.87l0 -204.41 65.96 0zm122.75 264.29l146.82 0 0 48.03 -212.54 0 0 -312.32 65.72 0 0 264.29zm365.74 -19.33l-106.31 0 -22.07 67.36 -68.64 0 110.54 -312.32 67.33 0 110.15 312.32 -68.72 0 -22.28 -67.36zm-90.1 -49.12l74.11 0 -36.21 -110.04 -1.38 0 -36.52 110.04zm278.34 -8.35l0 124.83 -65.72 0 0 -312.32 113.46 0c37.43,0 66.64,8.13 87.7,24.38 21.14,16.25 31.67,38.87 31.67,67.87 0,16.03 -4.46,29.87 -13.37,41.51 -8.99,11.64 -21.98,21.08 -39.13,28.18 19.38,5.42 33.29,14.57 41.82,27.23 8.45,12.75 12.68,28.49 12.68,47.23l0 22.92c0,8.7 1.23,17.86 3.77,27.38 2.46,9.51 6.69,16.54 12.68,21.08l0 4.54 -67.79 0c-6,-4.62 -9.84,-12.16 -11.61,-22.77 -1.69,-10.55 -2.54,-20.8 -2.54,-30.6l0 -22.12c0,-15.59 -4.46,-27.74 -13.45,-36.38 -8.92,-8.64 -21.52,-12.96 -37.9,-12.96l-52.27 0zm0 -48.24l46.59 0c18.52,0 32.2,-3.74 41.27,-11.21 9,-7.39 13.46,-18.44 13.46,-33.01 0,-14.28 -4.54,-25.62 -13.61,-34.11 -9.07,-8.43 -22.37,-12.6 -39.97,-12.6l-47.74 0 0 90.93z"/>
   <g>
    <path class="fil2" d="M1124.3 156.71c-383.45,0 -689.47,249.48 -776.83,572.76 20.8,203.5 40.69,408.1 61.84,631.76l-0.01 0 0 1067.49 372.72 0 0 -718.55c104.05,48.28 219.99,75.27 342.28,75.27 449.74,0 814.35,-364.6 814.35,-814.36 0,-449.77 -364.61,-814.37 -814.35,-814.37z"/>
    <path class="fil3" d="M399.96 1355.29l378.17 -4.29 2.94 21.1 399.25 1.97c113.58,-92.39 424.32,107.81 432.39,-141.69l0 -276.24c-23.26,-86.4 -77.5,-130.88 -123.2,-183.12 16.63,-19.57 63.39,-0.6 73.59,-17.21 -26.62,-90.69 -83.88,-73.65 -148.04,-34.88 -50.73,-129.8 -121.23,-251.69 -199.65,-270.8l-726.43 0c-65.23,86.1 -109.11,149.15 -150.31,274.13l61.29 631.03z"/>
    <path class="fil1" d="M860.24 2383.95l0 -486.99 74.14 0 0 74.6c18.92,-34.56 36.44,-57.4 52.54,-68.34 16.11,-11.11 33.77,-16.59 53.01,-16.59 27.84,0 56.14,8.76 84.93,26.12l-29.4 76.16c-20.03,-11.25 -40.03,-16.88 -60.06,-16.88 -17.98,0 -34.08,5.47 -48.32,16.26 -14.23,10.79 -24.39,25.8 -30.5,45.04 -9.23,29.24 -13.77,61.3 -13.77,96.18l0 254.44 -82.57 0zm282.44 -243.49c0,-89.93 25.03,-156.55 75.23,-199.87 41.75,-35.97 92.91,-53.96 153.11,-53.96 66.78,0 121.51,21.9 164.05,65.69 42.39,43.63 63.65,104.16 63.65,181.25 0,62.56 -9.39,111.67 -28.15,147.47 -18.76,35.82 -46.13,63.66 -82.1,83.52 -35.82,19.86 -75.08,29.72 -117.45,29.72 -68.19,0 -123.24,-21.74 -165.3,-65.37 -42.07,-43.63 -63.04,-106.51 -63.04,-188.45zm84.46 0.15c0,62.24 13.6,108.85 40.82,139.66 27.37,30.97 61.62,46.44 103.06,46.44 40.98,0 75.07,-15.47 102.43,-46.6 27.21,-31.12 40.82,-78.5 40.82,-142.16 0,-60.05 -13.77,-105.56 -41.13,-136.37 -27.37,-30.97 -61.45,-46.44 -102.12,-46.44 -41.44,0 -75.69,15.32 -103.06,46.13 -27.22,30.81 -40.82,77.26 -40.82,139.34zm786.47 65.06l80.7 11.26c-8.92,55.51 -31.43,98.84 -67.87,130.27 -36.43,31.43 -81.33,47.08 -134.34,47.08 -66.46,0 -119.96,-21.74 -160.29,-65.21 -40.5,-43.49 -60.68,-105.72 -60.68,-186.74 0,-52.55 8.75,-98.36 26.1,-137.77 17.38,-39.26 43.8,-68.82 79.45,-88.36 35.5,-19.71 74.14,-29.57 116.05,-29.57 52.71,0 96.01,13.3 129.48,40.04 33.63,26.74 55.22,64.75 64.59,113.85l-79.75 12.21c-7.67,-32.69 -21.11,-57.24 -40.67,-73.83 -19.37,-16.42 -42.84,-24.7 -70.38,-24.7 -41.58,0 -75.38,14.86 -101.49,44.57 -25.96,29.87 -38.93,76.78 -38.93,141.22 0,65.37 12.5,112.75 37.54,142.31 25.17,29.55 57.84,44.41 98.04,44.41 32.54,0 59.59,-9.85 81.18,-29.71 21.74,-19.71 35.49,-50.2 41.27,-91.33zm469.17 117.29c-30.66,26.12 -60.2,44.42 -88.5,55.2 -28.32,10.8 -58.65,16.12 -91.19,16.12 -53.47,0 -94.61,-12.98 -123.39,-39.1 -28.77,-25.97 -43.17,-59.28 -43.17,-99.78 0,-23.77 5.47,-45.5 16.28,-65.22 10.93,-19.69 25.17,-35.34 42.69,-47.22 17.67,-11.88 37.37,-20.96 59.41,-27.06 16.29,-4.22 40.82,-8.29 73.53,-12.35 66.6,-7.82 115.87,-17.36 147.31,-28.31 0.3,-11.26 0.47,-18.45 0.47,-21.43 0,-33.46 -7.83,-57.08 -23.47,-70.84 -21.1,-18.6 -52.55,-27.83 -94.14,-27.83 -38.94,0 -67.72,6.87 -86.17,20.48 -18.61,13.61 -32.22,37.7 -41.12,72.41l-80.71 -11.26c7.35,-34.56 19.4,-62.56 36.29,-83.83 16.88,-21.26 41.27,-37.53 73.19,-49.11 31.74,-11.41 68.8,-17.2 110.71,-17.2 41.61,0 75.55,4.85 101.66,14.71 25.97,9.85 45.2,22.05 57.4,36.91 12.2,14.85 20.8,33.62 25.81,56.3 2.65,14.07 4.06,39.41 4.06,75.85l0 109.47c0,76.47 1.7,124.79 5.15,145.28 3.28,20.49 10.16,40.03 20.18,58.8l-86.33 0c-8.28,-17.36 -13.61,-37.68 -15.95,-60.99zm-6.56 -182.97c-30.04,12.2 -75.08,22.52 -135.12,30.97 -34.11,4.83 -58.18,10.31 -72.25,16.41 -14.09,6.1 -24.87,15.01 -32.53,26.59 -7.68,11.73 -11.58,24.71 -11.58,39.1 0,21.73 8.28,40.03 25.01,54.57 16.74,14.55 41.14,21.89 73.21,21.89 31.75,0 60.05,-6.87 84.91,-20.79 24.72,-13.77 43.02,-32.68 54.59,-56.61 8.9,-18.62 13.29,-45.98 13.29,-82.1l0.47 -30.03zm209.4 243.96l0 -486.99 74.12 0 0 74.6c18.92,-34.56 36.44,-57.4 52.55,-68.34 16.12,-11.11 33.78,-16.59 53.02,-16.59 27.84,0 56.14,8.76 84.92,26.12l-29.42 76.16c-20,-11.25 -40.02,-16.88 -60.04,-16.88 -17.99,0 -34.1,5.47 -48.33,16.26 -14.23,10.79 -24.39,25.8 -30.48,45.04 -9.23,29.24 -13.77,61.3 -13.77,96.18l0 254.44 -82.57 0z"/>
    <path class="fil4" d="M3038.76 2386.08l0 -488.7 316.84 0c64.5,0 116.2,4.9 155.3,14.81 38.93,9.88 69.4,25.12 91.41,45.73 22.21,20.47 33.2,41.96 33.2,64.48 0,20.83 -9.83,40.51 -29.26,58.93 -19.46,18.44 -48.95,33.33 -88.46,44.72 51.11,8.64 90.41,23.43 117.72,44.36 27.55,20.81 41.32,45.49 41.32,73.93 0,22.99 -8.48,44.25 -25.17,63.93 -16.72,19.68 -37.38,34.82 -61.9,45.51 -24.59,10.57 -55.43,18.65 -92.4,24.12 -37.16,5.45 -82.56,8.18 -136.42,8.18l-322.18 0zm112.07 -283.24l182.59 0c49.52,0 85.11,-1.94 106.55,-5.69 28.47,-4.9 49.9,-13.09 64.26,-24.47 14.36,-11.36 21.64,-25.59 21.64,-42.75 0,-16.28 -6.69,-30.62 -20.25,-42.89 -13.38,-12.4 -32.64,-20.94 -57.62,-25.48 -24.94,-4.57 -67.81,-6.84 -128.32,-6.84l-168.85 0 0 148.12zm0 225.91l210.31 0c36.16,0 61.51,-0.8 76.26,-2.39 25.57,-2.62 47.17,-7.06 64.47,-13.3 17.31,-6.27 31.46,-15.36 42.68,-27.31 11.18,-11.94 16.67,-25.7 16.67,-41.3 0,-18.31 -8.04,-34.13 -24.36,-47.65 -16.11,-13.55 -38.54,-22.99 -67.22,-28.44 -28.53,-5.47 -69.79,-8.19 -123.45,-8.19l-195.36 0 0 168.58zm681.67 57.33l0 -488.7 374.27 0c75.3,0 132.49,4.44 171.6,13.22 39.12,8.75 70.35,24.22 93.78,46.39 23.35,22.2 34.97,46.77 34.97,73.6 0,34.7 -19.45,63.93 -58.2,87.71 -38.69,23.78 -98.47,38.79 -179.46,45.27 29.7,8.19 52.09,16.39 67.43,24.36 32.63,17.27 63.51,39 92.39,65.06l146.05 133.09 -139.55 0 -111.68 -101.7c-32.42,-29.45 -59.35,-51.87 -80.37,-67.44 -21.24,-15.6 -40.1,-26.41 -56.8,-32.65 -16.51,-6.16 -33.63,-10.48 -50.93,-12.97 -12.6,-1.48 -33.2,-2.28 -62.12,-2.28l-129.33 0 0 217.04 -112.05 0zm112.05 -273.01l239.83 0c51.09,0 90.78,-3.06 119.47,-9.22 28.72,-6.02 50.52,-15.81 65.27,-29.34 14.96,-13.43 22.43,-27.99 22.43,-43.79 0,-23.1 -14.38,-42.2 -43.26,-57.12 -28.9,-14.89 -74.5,-22.3 -136.81,-22.3l-266.93 0 0 161.77zm644.73 273.01l323.93 -488.7 122.84 0 343.81 488.7 -127.18 0 -97.67 -148.11 -355.59 0 -91.61 148.11 -118.53 0zm242.94 -200.67l287.79 0 -88.06 -135.47c-26.54,-41.19 -46.59,-75.19 -60.54,-102.04 -11.62,31.86 -27.14,63.14 -46.62,94.07l-92.57 143.44zm599.73 43.69l104.99 -5.45c4.92,24.57 16.5,44.69 34.78,60.51 18.29,15.69 46.58,28.44 84.92,38.21 38.32,9.68 81.58,14.56 129.53,14.56 42.66,0 80.21,-3.64 112.84,-11.03 32.63,-7.39 56.78,-17.52 72.69,-30.36 15.95,-12.86 24,-26.85 24,-41.87 0,-15.24 -7.68,-28.55 -23,-40.04 -15.34,-11.38 -40.69,-20.93 -76.04,-28.79 -22.63,-4.99 -72.74,-12.95 -150.39,-23.76 -77.66,-10.81 -131.93,-20.94 -162.93,-30.49 -40.34,-12.29 -70.18,-27.53 -89.86,-45.62 -19.86,-18.09 -29.69,-38.45 -29.69,-60.85 0,-24.81 12.17,-47.89 36.38,-69.29 24.17,-21.49 59.37,-37.77 105.97,-48.91 46.38,-11.14 98.08,-16.72 154.88,-16.72 62.49,0 117.7,5.8 165.49,17.52 47.74,11.6 84.53,28.78 110.29,51.53 25.74,22.64 39.5,48.34 41.46,77.02l-107.3 4.76c-5.74,-30.82 -25.18,-54.14 -58.4,-69.84 -33.21,-15.8 -82.36,-23.65 -147.25,-23.65 -67.58,0 -116.93,7.16 -147.77,21.48 -30.88,14.34 -46.4,31.64 -46.4,51.89 0,17.52 11,31.97 32.8,43.33 21.64,11.27 77.66,22.99 168.48,34.81 90.78,11.96 153.11,22.3 186.94,31.17 48.95,13.09 85.27,29.59 108.67,49.71 23.43,20.03 35.01,43.13 35.01,69.29 0,26.04 -12.78,50.39 -38.54,73.36 -25.74,22.98 -62.48,40.83 -110.68,53.58 -48.12,12.75 -102.19,19.11 -162.53,19.11 -76.3,0 -140.19,-6.49 -191.64,-19.33 -51.73,-12.86 -92.03,-32.21 -121.32,-58.13 -29.45,-25.83 -44.83,-55.06 -46.38,-87.71zm842.1 156.98l0 -488.7 112.05 0 0 488.7 -112.05 0zm304.07 0l0 -488.7 112.09 0 0 431.37 415.13 0 0 57.33 -527.22 0z"/>
    <path class="fil2" d="M498.37 1178.02l596.94 0c9.23,34.92 -9.24,78.73 -43.48,86.96l-504.03 0c-40.21,-4.28 -56.68,-54.02 -49.43,-86.96z"/>
    <path class="fil2" d="M1364.12 1086.11l63.75 -0.51c42.72,-0.32 105.25,-14.13 105.25,-68.68l0 -92.9c0,-34.79 -28.46,-63.25 -63.25,-63.25l-41.52 0c-34.77,0 -63.04,28.47 -63.24,63.25l-0.99 162.09z"/>
    <path class="fil2" d="M1503.46 1198.77l-152.19 0c-35.57,0 -59.56,10.46 -53.29,43.23 5.95,30.93 95.49,73.39 129.4,73.39l76.08 0c30.47,0 55.35,-24.9 55.35,-55.35l0 -5.92c0,-30.44 -24.88,-55.35 -55.35,-55.35z"/>
    <path class="fil2" d="M351.12 735.24l1035.73 0c-10.87,-104.81 -95.32,-253 -188.76,-253 -232.91,0 -447.04,0 -679.95,0 -85.98,-5.6 -145.27,162.73 -167.02,253z"/>
   </g>
  </g>
 </g>
</svg>
