<?xml version="1.0" encoding="UTF-8"?>
<!DOCTYPE svg PUBLIC "-//W3C//DTD SVG 1.1//EN" "http://www.w3.org/Graphics/SVG/1.1/DTD/svg11.dtd">
<!-- Creator: CorelDRAW 2020 (64 Bit) -->
<svg xmlns="http://www.w3.org/2000/svg" xml:space="preserve" width="160px" height="160px" version="1.1" style="shape-rendering:geometricPrecision; text-rendering:geometricPrecision; image-rendering:optimizeQuality; fill-rule:evenodd; clip-rule:evenodd"
viewBox="0 0 160 160"
 xmlns:xlink="http://www.w3.org/1999/xlink"
 xmlns:xodm="http://www.corel.com/coreldraw/odm/2003">
 <defs>
  <style type="text/css">
   <![CDATA[
    .str0 {stroke:#006346;stroke-width:2.36;stroke-miterlimit:22.9256}
    .fil1 {fill:#FEFEFE}
    .fil0 {fill:#006346}
    .fil4 {fill:#FFCC13}
    .fil2 {fill:#FEFEFE;fill-rule:nonzero}
    .fil3 {fill:#FFCC29;fill-rule:nonzero}
   ]]>
  </style>
 </defs>
 <g id="Camada_x0020_1">
  <metadata id="CorelCorpID_0Corel-Layer"/>
  <g id="_2259927102480">
   <circle class="fil0 str0" cx="80" cy="80" r="45"/>
   <path class="fil1" d="M68.15 48.39c-8.73,0 -15.7,5.69 -17.69,13.05 0.47,4.64 0.92,9.3 1.41,14.39l-0.01 0 0 24.32 8.49 0 0 -16.37c2.38,1.1 5.02,1.71 7.8,1.71 10.25,0 18.55,-8.3 18.55,-18.54 0,-10.25 -8.3,-18.56 -18.55,-18.56z"/>
   <path class="fil0" d="M51.65 75.7l8.62 -0.1 0.06 0.48 9.1 0.04c2.58,-2.1 9.66,2.46 9.85,-3.22l0 -6.29c-0.53,-1.97 -1.77,-2.99 -2.81,-4.18 0.38,-0.44 1.44,-0.01 1.68,-0.39 -0.61,-2.06 -1.91,-1.68 -3.38,-0.79 -1.15,-2.96 -2.76,-5.74 -4.54,-6.17l-16.55 0c-1.49,1.96 -2.48,3.4 -3.42,6.24l1.39 14.38z"/>
   <path class="fil2" d="M62.14 99.13l0 -11.09 1.69 0 0 1.69c0.43,-0.78 0.83,-1.3 1.19,-1.55 0.37,-0.26 0.77,-0.38 1.21,-0.38 0.63,0 1.28,0.2 1.93,0.59l-0.67 1.74c-0.45,-0.26 -0.91,-0.39 -1.36,-0.39 -0.41,0 -0.78,0.13 -1.1,0.38 -0.33,0.24 -0.56,0.58 -0.7,1.02 -0.21,0.67 -0.31,1.4 -0.31,2.19l0 5.8 -1.88 0zm6.43 -5.55c0,-2.05 0.57,-3.56 1.71,-4.55 0.95,-0.82 2.12,-1.23 3.49,-1.23 1.52,0 2.77,0.5 3.74,1.5 0.96,0.99 1.45,2.37 1.45,4.12 0,1.43 -0.22,2.55 -0.64,3.36 -0.43,0.82 -1.05,1.45 -1.87,1.91 -0.82,0.45 -1.71,0.67 -2.68,0.67 -1.55,0 -2.81,-0.49 -3.76,-1.49 -0.96,-0.99 -1.44,-2.42 -1.44,-4.29zm1.92 0.01c0,1.41 0.31,2.47 0.93,3.18 0.63,0.7 1.41,1.05 2.35,1.05 0.94,0 1.71,-0.35 2.33,-1.06 0.62,-0.71 0.93,-1.79 0.93,-3.24 0,-1.36 -0.31,-2.4 -0.93,-3.1 -0.63,-0.71 -1.4,-1.06 -2.33,-1.06 -0.94,0 -1.72,0.35 -2.35,1.05 -0.62,0.7 -0.93,1.76 -0.93,3.18zm17.92 1.48l1.84 0.25c-0.21,1.27 -0.72,2.25 -1.55,2.97 -0.83,0.72 -1.85,1.07 -3.06,1.07 -1.51,0 -2.73,-0.49 -3.65,-1.48 -0.92,-0.99 -1.38,-2.41 -1.38,-4.26 0,-1.19 0.2,-2.24 0.59,-3.13 0.4,-0.9 1,-1.57 1.81,-2.02 0.81,-0.45 1.69,-0.67 2.65,-0.67 1.2,0 2.18,0.3 2.94,0.91 0.77,0.61 1.26,1.48 1.48,2.59l-1.82 0.28c-0.18,-0.74 -0.48,-1.3 -0.93,-1.68 -0.44,-0.37 -0.97,-0.56 -1.6,-0.56 -0.95,0 -1.72,0.34 -2.31,1.01 -0.59,0.68 -0.89,1.75 -0.89,3.22 0,1.49 0.29,2.57 0.86,3.24 0.57,0.68 1.31,1.01 2.23,1.01 0.74,0 1.36,-0.22 1.85,-0.67 0.49,-0.45 0.81,-1.15 0.94,-2.08zm10.69 2.67c-0.7,0.59 -1.38,1.01 -2.02,1.26 -0.64,0.24 -1.34,0.36 -2.08,0.36 -1.22,0 -2.15,-0.29 -2.81,-0.89 -0.65,-0.59 -0.98,-1.35 -0.98,-2.27 0,-0.54 0.12,-1.04 0.37,-1.49 0.25,-0.44 0.57,-0.8 0.97,-1.07 0.4,-0.27 0.85,-0.48 1.36,-0.62 0.37,-0.09 0.92,-0.19 1.67,-0.28 1.52,-0.18 2.64,-0.4 3.36,-0.64 0,-0.26 0.01,-0.42 0.01,-0.49 0,-0.77 -0.18,-1.3 -0.54,-1.62 -0.48,-0.42 -1.2,-0.63 -2.14,-0.63 -0.89,0 -1.55,0.16 -1.97,0.47 -0.42,0.31 -0.73,0.86 -0.93,1.65l-1.84 -0.26c0.17,-0.79 0.44,-1.43 0.83,-1.91 0.38,-0.48 0.94,-0.85 1.66,-1.12 0.73,-0.26 1.57,-0.39 2.52,-0.39 0.95,0 1.73,0.11 2.32,0.33 0.59,0.23 1.03,0.51 1.31,0.85 0.28,0.33 0.47,0.76 0.59,1.28 0.06,0.32 0.09,0.9 0.09,1.73l0 2.49c0,1.74 0.04,2.84 0.12,3.31 0.07,0.47 0.23,0.91 0.46,1.34l-1.97 0c-0.19,-0.4 -0.31,-0.86 -0.36,-1.39zm-0.15 -4.17c-0.69,0.28 -1.71,0.51 -3.08,0.71 -0.78,0.11 -1.33,0.23 -1.65,0.37 -0.32,0.14 -0.56,0.34 -0.74,0.61 -0.17,0.26 -0.26,0.56 -0.26,0.89 0,0.49 0.19,0.91 0.57,1.24 0.38,0.33 0.93,0.5 1.66,0.5 0.73,0 1.37,-0.16 1.94,-0.48 0.56,-0.31 0.98,-0.74 1.24,-1.29 0.21,-0.42 0.31,-1.04 0.31,-1.87l0.01 -0.68zm4.77 5.56l0 -11.09 1.68 0 0 1.69c0.44,-0.78 0.83,-1.3 1.2,-1.55 0.37,-0.26 0.77,-0.38 1.21,-0.38 0.63,0 1.28,0.2 1.93,0.59l-0.67 1.74c-0.45,-0.26 -0.91,-0.39 -1.36,-0.39 -0.41,0 -0.78,0.13 -1.11,0.38 -0.32,0.24 -0.55,0.58 -0.69,1.02 -0.21,0.67 -0.31,1.4 -0.31,2.19l0 5.8 -1.88 0z"/>
   <path class="fil3" d="M52.72 109.03l0 -6.74 4.37 0c0.89,0 1.61,0.06 2.15,0.2 0.54,0.14 0.96,0.35 1.26,0.63 0.31,0.28 0.46,0.58 0.46,0.89 0,0.29 -0.14,0.56 -0.41,0.82 -0.26,0.25 -0.67,0.46 -1.22,0.61 0.71,0.12 1.25,0.33 1.63,0.62 0.38,0.28 0.57,0.62 0.57,1.02 0,0.31 -0.12,0.61 -0.35,0.88 -0.23,0.27 -0.51,0.48 -0.85,0.63 -0.34,0.14 -0.77,0.26 -1.28,0.33 -0.51,0.08 -1.14,0.11 -1.88,0.11l-4.45 0zm1.55 -3.91l2.52 0c0.68,0 1.17,-0.02 1.47,-0.08 0.39,-0.06 0.69,-0.18 0.89,-0.33 0.19,-0.16 0.3,-0.36 0.3,-0.59 0,-0.23 -0.1,-0.43 -0.28,-0.6 -0.19,-0.17 -0.46,-0.29 -0.8,-0.35 -0.34,-0.06 -0.94,-0.09 -1.77,-0.09l-2.33 0 0 2.04zm0 3.12l2.9 0c0.5,0 0.85,-0.01 1.05,-0.03 0.36,-0.04 0.65,-0.1 0.89,-0.18 0.24,-0.09 0.44,-0.22 0.59,-0.38 0.16,-0.17 0.23,-0.36 0.23,-0.57 0,-0.25 -0.11,-0.47 -0.33,-0.66 -0.23,-0.19 -0.54,-0.32 -0.93,-0.39 -0.4,-0.08 -0.96,-0.12 -1.71,-0.12l-2.69 0 0 2.33zm9.41 0.79l0 -6.74 5.17 0c1.03,0 1.82,0.06 2.36,0.18 0.54,0.12 0.98,0.33 1.3,0.64 0.32,0.31 0.48,0.65 0.48,1.02 0,0.47 -0.27,0.88 -0.8,1.21 -0.54,0.32 -1.36,0.53 -2.48,0.62 0.41,0.11 0.72,0.23 0.93,0.34 0.45,0.24 0.88,0.54 1.28,0.9l2.01 1.83 -1.92 0 -1.55 -1.4c-0.44,-0.41 -0.81,-0.72 -1.1,-0.93 -0.3,-0.22 -0.56,-0.37 -0.79,-0.45 -0.23,-0.09 -0.46,-0.15 -0.7,-0.18 -0.18,-0.02 -0.46,-0.03 -0.86,-0.03l-1.78 0 0 2.99 -1.55 0zm1.55 -3.77l3.31 0c0.7,0 1.25,-0.04 1.64,-0.12 0.4,-0.09 0.7,-0.22 0.91,-0.41 0.2,-0.18 0.31,-0.38 0.31,-0.6 0,-0.32 -0.2,-0.59 -0.6,-0.79 -0.4,-0.21 -1.03,-0.31 -1.89,-0.31l-3.68 0 0 2.23zm8.9 3.77l4.47 -6.74 1.69 0 4.75 6.74 -1.76 0 -1.34 -2.04 -4.91 0 -1.27 2.04 -1.63 0zm3.35 -2.77l3.97 0 -1.21 -1.87c-0.37,-0.57 -0.65,-1.04 -0.84,-1.41 -0.16,0.44 -0.37,0.88 -0.64,1.3l-1.28 1.98zm8.28 0.61l1.45 -0.08c0.07,0.34 0.23,0.62 0.48,0.84 0.25,0.21 0.64,0.39 1.17,0.52 0.53,0.14 1.13,0.2 1.79,0.2 0.59,0 1.11,-0.05 1.56,-0.15 0.45,-0.1 0.78,-0.24 1,-0.42 0.22,-0.17 0.33,-0.37 0.33,-0.57 0,-0.21 -0.1,-0.4 -0.32,-0.56 -0.21,-0.15 -0.56,-0.29 -1.05,-0.4 -0.31,-0.06 -1,-0.17 -2.07,-0.32 -1.07,-0.15 -1.82,-0.29 -2.25,-0.42 -0.56,-0.17 -0.97,-0.38 -1.24,-0.63 -0.28,-0.25 -0.41,-0.53 -0.41,-0.84 0,-0.35 0.17,-0.66 0.5,-0.96 0.33,-0.3 0.82,-0.52 1.46,-0.68 0.65,-0.15 1.36,-0.23 2.14,-0.23 0.87,0 1.63,0.08 2.29,0.25 0.66,0.16 1.16,0.39 1.52,0.71 0.36,0.31 0.55,0.66 0.57,1.06l-1.48 0.07c-0.08,-0.43 -0.35,-0.75 -0.81,-0.97 -0.45,-0.22 -1.13,-0.32 -2.03,-0.32 -0.93,0 -1.61,0.09 -2.04,0.29 -0.42,0.2 -0.64,0.44 -0.64,0.72 0,0.24 0.15,0.44 0.45,0.6 0.3,0.15 1.08,0.31 2.33,0.48 1.25,0.16 2.11,0.3 2.58,0.43 0.68,0.18 1.18,0.41 1.5,0.68 0.32,0.28 0.48,0.6 0.48,0.96 0,0.36 -0.17,0.7 -0.53,1.01 -0.35,0.32 -0.86,0.57 -1.53,0.74 -0.66,0.18 -1.41,0.27 -2.24,0.27 -1.05,0 -1.93,-0.09 -2.64,-0.27 -0.72,-0.18 -1.28,-0.44 -1.68,-0.8 -0.41,-0.36 -0.62,-0.76 -0.64,-1.21zm11.63 2.16l0 -6.74 1.54 0 0 6.74 -1.54 0zm4.19 0l0 -6.74 1.55 0 0 5.95 5.73 0 0 0.79 -7.28 0z"/>
   <path class="fil1" d="M53.89 71.66l13.6 0c0.21,0.79 -0.21,1.79 -0.99,1.98l-11.48 0c-0.92,-0.1 -1.29,-1.23 -1.13,-1.98z"/>
   <path class="fil1" d="M73.61 69.56l1.46 -0.01c0.97,0 2.39,-0.32 2.39,-1.56l0 -2.12c0,-0.79 -0.64,-1.44 -1.44,-1.44l-0.94 0c-0.79,0 -1.44,0.65 -1.44,1.44l-0.03 3.69z"/>
   <path class="fil1" d="M76.79 72.13l-3.47 0c-0.81,0 -1.36,0.24 -1.21,0.99 0.13,0.7 2.17,1.67 2.95,1.67l1.73 0c0.69,0 1.26,-0.57 1.26,-1.26l0 -0.14c0,-0.69 -0.57,-1.26 -1.26,-1.26z"/>
   <path class="fil1" d="M50.54 61.57l23.59 0c-0.25,-2.38 -2.17,-5.76 -4.3,-5.76 -5.3,0 -10.18,0 -15.48,0 -1.96,-0.13 -3.31,3.71 -3.81,5.76z"/>
   <path class="fil2" d="M59.13 114.74l0 1.11 -0.65 0 0 -3.07 1.24 0c0.37,0 0.66,0.09 0.87,0.27 0.21,0.18 0.32,0.41 0.32,0.71 0,0.29 -0.11,0.53 -0.32,0.71 -0.21,0.18 -0.5,0.27 -0.87,0.27l-0.59 0zm0 -0.48l0.59 0c0.18,0 0.31,-0.05 0.41,-0.14 0.09,-0.09 0.14,-0.21 0.14,-0.36 0,-0.15 -0.05,-0.27 -0.14,-0.36 -0.09,-0.1 -0.23,-0.15 -0.41,-0.15l-0.59 0 0 1.01zm2.89 0.36l0 1.23 -0.65 0 0 -3.07 1.12 0c0.37,0 0.65,0.08 0.86,0.24 0.21,0.16 0.31,0.38 0.31,0.66 0,0.16 -0.04,0.3 -0.13,0.41 -0.09,0.12 -0.21,0.21 -0.38,0.28 0.19,0.05 0.32,0.14 0.41,0.27 0.08,0.12 0.12,0.28 0.12,0.46l0 0.23c0,0.08 0.01,0.17 0.04,0.27 0.02,0.09 0.07,0.16 0.12,0.2l0 0.05 -0.66 0c-0.06,-0.05 -0.1,-0.12 -0.12,-0.23 -0.01,-0.1 -0.02,-0.2 -0.02,-0.3l0 -0.21c0,-0.16 -0.05,-0.28 -0.13,-0.36 -0.09,-0.09 -0.22,-0.13 -0.38,-0.13l-0.51 0zm0 -0.47l0.46 0c0.18,0 0.31,-0.04 0.4,-0.11 0.09,-0.08 0.14,-0.18 0.14,-0.33 0,-0.14 -0.05,-0.25 -0.14,-0.33 -0.09,-0.09 -0.22,-0.13 -0.39,-0.13l-0.47 0 0 0.9zm4.85 0.44c0,0.38 -0.12,0.69 -0.37,0.93 -0.25,0.25 -0.58,0.37 -0.98,0.37 -0.4,0 -0.72,-0.12 -0.97,-0.37 -0.25,-0.24 -0.37,-0.55 -0.37,-0.93l0 -0.55c0,-0.38 0.12,-0.69 0.37,-0.94 0.25,-0.24 0.57,-0.37 0.97,-0.37 0.4,0 0.72,0.13 0.98,0.37 0.25,0.25 0.37,0.56 0.37,0.94l0 0.55zm-0.64 -0.56c0,-0.24 -0.07,-0.43 -0.19,-0.59 -0.13,-0.15 -0.3,-0.23 -0.52,-0.23 -0.22,0 -0.39,0.08 -0.51,0.23 -0.12,0.16 -0.18,0.35 -0.18,0.59l0 0.56c0,0.24 0.06,0.44 0.18,0.59 0.12,0.16 0.29,0.23 0.51,0.23 0.22,0 0.4,-0.07 0.52,-0.23 0.12,-0.15 0.19,-0.35 0.19,-0.59l0 -0.56zm3.34 -0.78l-0.92 0 0 2.6 -0.65 0 0 -2.6 -0.9 0 0 -0.47 2.47 0 0 0.47zm2.2 1.25l-1.2 0 0 0.88 1.42 0 0 0.47 -2.06 0 0 -3.07 2.06 0 0 0.47 -1.42 0 0 0.77 1.2 0 0 0.48zm3.09 0.33l0.01 0.01c0,0.33 -0.1,0.59 -0.32,0.77 -0.21,0.19 -0.51,0.28 -0.89,0.28 -0.39,0 -0.7,-0.12 -0.93,-0.35 -0.24,-0.24 -0.36,-0.55 -0.36,-0.92l0 -0.61c0,-0.37 0.11,-0.68 0.35,-0.92 0.23,-0.24 0.53,-0.36 0.91,-0.36 0.39,0 0.7,0.1 0.92,0.28 0.22,0.18 0.33,0.44 0.32,0.77l0 0.01 -0.63 0c0,-0.19 -0.05,-0.34 -0.15,-0.44 -0.1,-0.09 -0.25,-0.14 -0.46,-0.14 -0.19,0 -0.35,0.07 -0.45,0.22 -0.11,0.15 -0.17,0.34 -0.17,0.58l0 0.61c0,0.23 0.06,0.43 0.18,0.58 0.11,0.15 0.27,0.22 0.47,0.22 0.2,0 0.34,-0.05 0.43,-0.14 0.1,-0.1 0.15,-0.25 0.15,-0.45l0.62 0zm-0.99 1.01l-0.02 0.12c0.09,0.02 0.17,0.05 0.24,0.11 0.06,0.06 0.09,0.14 0.09,0.25 0,0.15 -0.06,0.28 -0.2,0.37 -0.13,0.08 -0.33,0.13 -0.57,0.13l-0.02 -0.34c0.07,0 0.14,-0.01 0.18,-0.04 0.04,-0.03 0.07,-0.07 0.07,-0.13 0,-0.06 -0.03,-0.1 -0.08,-0.13 -0.04,-0.02 -0.12,-0.03 -0.24,-0.04l0.07 -0.3 0.48 0zm3.14 -0.65l-1.04 0 -0.22 0.66 -0.68 0 1.09 -3.07 0.66 0 1.09 3.07 -0.68 0 -0.22 -0.66zm-0.88 -0.49l0.72 0 -0.35 -1.08 -0.01 0 -0.36 1.08zm1.18 -2.77c0,0.14 -0.04,0.25 -0.13,0.35 -0.09,0.09 -0.2,0.14 -0.33,0.14 -0.11,0 -0.23,-0.03 -0.36,-0.09 -0.13,-0.06 -0.23,-0.09 -0.31,-0.09 -0.05,0 -0.09,0.02 -0.13,0.06 -0.04,0.05 -0.05,0.1 -0.05,0.17l-0.35 -0.09c0,-0.13 0.05,-0.25 0.13,-0.34 0.09,-0.1 0.2,-0.15 0.33,-0.15 0.09,0 0.2,0.03 0.34,0.09 0.14,0.06 0.25,0.09 0.33,0.09 0.05,0 0.09,-0.02 0.13,-0.07 0.04,-0.04 0.06,-0.1 0.06,-0.16l0.34 0.09zm3.49 2.66c0,0.38 -0.12,0.69 -0.37,0.93 -0.25,0.25 -0.58,0.37 -0.98,0.37 -0.4,0 -0.72,-0.12 -0.97,-0.37 -0.25,-0.24 -0.37,-0.55 -0.37,-0.93l0 -0.55c0,-0.38 0.12,-0.69 0.37,-0.94 0.25,-0.24 0.57,-0.37 0.97,-0.37 0.4,0 0.72,0.13 0.97,0.37 0.25,0.25 0.38,0.56 0.38,0.94l0 0.55zm-0.64 -0.56c0,-0.24 -0.07,-0.43 -0.19,-0.59 -0.13,-0.15 -0.3,-0.23 -0.52,-0.23 -0.22,0 -0.39,0.08 -0.51,0.23 -0.13,0.16 -0.19,0.35 -0.19,0.59l0 0.56c0,0.24 0.07,0.44 0.19,0.59 0.12,0.16 0.29,0.23 0.51,0.23 0.22,0 0.4,-0.07 0.52,-0.23 0.12,-0.15 0.19,-0.35 0.19,-0.59l0 -0.56zm3.38 0.99l0.04 0.16 0.01 0 0.04 -0.16 0.7 -2.24 0.68 0 -1.09 3.07 -0.67 0 -1.09 -3.07 0.68 0 0.7 2.24zm3.63 -0.52l-1.2 0 0 0.88 1.42 0 0 0.47 -2.06 0 0 -3.07 2.06 0 0 0.47 -1.42 0 0 0.77 1.2 0 0 0.48zm1.37 1.35l-0.65 0 0 -3.07 0.65 0 0 3.07zm3.06 -1.02l0 0.01c0.01,0.33 -0.1,0.59 -0.31,0.77 -0.22,0.19 -0.52,0.28 -0.9,0.28 -0.38,0 -0.7,-0.12 -0.93,-0.35 -0.24,-0.24 -0.36,-0.55 -0.36,-0.92l0 -0.61c0,-0.37 0.12,-0.68 0.35,-0.92 0.23,-0.24 0.53,-0.36 0.91,-0.36 0.39,0 0.7,0.1 0.92,0.28 0.22,0.18 0.33,0.44 0.33,0.77l-0.01 0.01 -0.63 0c0,-0.19 -0.05,-0.34 -0.15,-0.44 -0.1,-0.09 -0.25,-0.14 -0.46,-0.14 -0.19,0 -0.34,0.07 -0.45,0.22 -0.11,0.15 -0.16,0.34 -0.16,0.58l0 0.61c0,0.23 0.05,0.43 0.17,0.58 0.11,0.15 0.27,0.22 0.47,0.22 0.2,0 0.34,-0.05 0.44,-0.14 0.09,-0.1 0.14,-0.25 0.14,-0.45l0.63 0zm3.02 -2.05l0 2.01c0,0.34 -0.12,0.61 -0.36,0.81 -0.24,0.19 -0.56,0.29 -0.94,0.29 -0.38,0 -0.69,-0.1 -0.93,-0.29 -0.24,-0.2 -0.36,-0.47 -0.36,-0.81l0 -2.01 0.65 0 0 2.01c0,0.2 0.06,0.36 0.17,0.47 0.12,0.11 0.27,0.16 0.47,0.16 0.2,0 0.36,-0.05 0.48,-0.16 0.11,-0.11 0.17,-0.27 0.17,-0.47l0 -2.01 0.65 0zm1.2 2.6l1.45 0 0 0.47 -2.09 0 0 -3.07 0.64 0 0 2.6zm3.6 -0.19l-1.04 0 -0.22 0.66 -0.68 0 1.09 -3.07 0.66 0 1.09 3.07 -0.68 0 -0.22 -0.66zm-0.88 -0.49l0.72 0 -0.35 -1.08 -0.02 0 -0.35 1.08zm2.73 -0.08l0 1.23 -0.64 0 0 -3.07 1.11 0c0.37,0 0.66,0.08 0.86,0.24 0.21,0.16 0.31,0.38 0.31,0.66 0,0.16 -0.04,0.3 -0.13,0.41 -0.09,0.12 -0.21,0.21 -0.38,0.28 0.19,0.05 0.33,0.14 0.41,0.27 0.08,0.12 0.12,0.28 0.12,0.46l0 0.23c0,0.08 0.02,0.17 0.04,0.27 0.02,0.09 0.07,0.16 0.13,0.2l0 0.05 -0.67 0c-0.06,-0.05 -0.1,-0.12 -0.11,-0.23 -0.02,-0.1 -0.03,-0.2 -0.03,-0.3l0 -0.21c0,-0.16 -0.04,-0.28 -0.13,-0.36 -0.09,-0.09 -0.21,-0.13 -0.37,-0.13l-0.52 0zm0 -0.47l0.46 0c0.18,0 0.32,-0.04 0.41,-0.11 0.08,-0.08 0.13,-0.18 0.13,-0.33 0,-0.14 -0.05,-0.25 -0.14,-0.33 -0.09,-0.09 -0.22,-0.13 -0.39,-0.13l-0.47 0 0 0.9z"/>
   <polygon class="fil4" points="52.62,109.91 108.96,109.91 108.96,110.8 52.62,110.8 "/>
  </g>
 </g>
</svg>
