<?xml version="1.0" standalone="no"?>
<!DOCTYPE svg PUBLIC "-//W3C//DTD SVG 20010904//EN"
 "http://www.w3.org/TR/2001/REC-SVG-20010904/DTD/svg10.dtd">
<svg version="1.0" xmlns="http://www.w3.org/2000/svg"
 width="624.000000pt" height="439.000000pt" viewBox="0 0 624.000000 439.000000"
 preserveAspectRatio="xMidYMid meet">

<g transform="translate(0.000000,439.000000) scale(0.100000,-0.100000)"
fill="#000000" stroke="none">
<path d="M5020 1269 c-71 -14 -167 -67 -223 -123 -106 -106 -137 -204 -137
-437 0 -169 9 -230 49 -315 54 -115 162 -206 284 -239 52 -14 98 -16 267 -13
l205 3 75 36 c119 57 198 145 240 268 17 53 20 85 20 253 0 131 -5 209 -14
244 -42 159 -180 288 -344 323 -62 13 -356 13 -422 0z m-190 -513 c0 -89 3
-107 21 -130 28 -36 80 -36 108 0 18 23 21 41 21 130 l0 104 25 0 25 0 0 -150
0 -150 -25 0 c-14 0 -25 4 -25 9 0 6 -12 3 -27 -5 -36 -18 -67 -18 -107 1 -52
25 -60 48 -64 178 l-4 117 26 0 26 0 0 -104z m280 55 l0 -50 28 15 c109 57
218 -94 134 -184 -32 -34 -91 -50 -125 -35 -12 6 -37 8 -54 6 l-33 -5 0 151 0
151 25 0 c23 0 25 -3 25 -49z m397 -53 c25 -23 48 -82 38 -98 -3 -5 -44 -10
-91 -10 -46 0 -84 -4 -84 -9 0 -11 49 -51 62 -51 6 0 26 7 45 16 25 13 37 14
45 6 17 -17 -17 -50 -58 -58 -47 -9 -82 2 -115 36 -52 51 -32 156 34 186 40
17 94 9 124 -18z m173 2 c0 -12 -8 -20 -22 -22 -32 -4 -48 -43 -48 -115 0 -56
-2 -63 -20 -63 -19 0 -20 7 -20 109 l0 108 55 1 c47 0 55 -2 55 -18z"/>
<path d="M5130 720 c-26 -26 -26 -81 0 -105 46 -42 123 -7 123 54 0 64 -78 96
-123 51z"/>
<path d="M5420 742 c-20 -6 -50 -33 -50 -44 0 -4 27 -8 60 -8 44 0 60 4 60 14
0 24 -42 47 -70 38z"/>
<path d="M3669 911 c-71 -23 -109 -76 -109 -154 0 -52 30 -102 77 -127 l31
-16 -39 -62 c-21 -34 -39 -64 -39 -67 0 -3 26 -5 58 -5 l57 0 74 113 c62 94
75 120 79 162 3 40 -1 56 -20 84 -43 63 -108 91 -169 72z m79 -103 c21 -21 14
-66 -13 -84 -51 -33 -104 21 -71 71 18 27 63 34 84 13z"/>
<path d="M3986 910 c-57 -17 -106 -85 -106 -147 0 -45 37 -108 75 -129 19 -10
35 -21 35 -24 0 -3 -18 -32 -40 -65 l-40 -60 56 -3 c31 -2 62 2 69 8 8 6 43
58 79 114 79 124 90 169 54 231 -15 26 -39 48 -68 63 -47 23 -67 26 -114 12z
m94 -111 c29 -52 -26 -107 -75 -75 -26 17 -32 45 -15 77 15 27 75 26 90 -2z"/>
</g>
</svg>
